<svg width="270" height="56" viewBox="0 0 270 56" fill="none" xmlns="http://www.w3.org/2000/svg">
<path d="M86.5255 12.7139L86.836 12.8333L86.9596 12.5244L87.1666 12.0069L87.2994 11.6749L86.9602 11.5618C83.4095 10.3783 79.9061 9.78492 76.4512 9.78492C73.024 9.78492 70.3907 10.5886 68.6141 12.2556C66.8476 13.8785 65.9704 16.0074 65.9704 18.6096C65.9704 21.8949 67.3367 24.4507 70.0537 26.239C71.2427 27.0431 72.5519 27.776 73.9805 28.438L73.9805 28.4381L73.9868 28.4409C75.4025 29.0624 76.8011 29.6667 78.1824 30.2538L78.1852 30.2549C79.5871 30.8362 80.8667 31.4677 82.0247 32.1489C84.5567 33.6484 85.7919 35.701 85.7919 38.3275C85.7919 40.7394 84.8429 42.5448 82.9431 43.7897C81.041 45.0242 78.7273 45.6498 75.9854 45.6498C74.1223 45.6498 72.2932 45.3791 70.4972 44.8373C68.7316 44.2597 67.3046 43.5345 66.2057 42.6687L65.9104 42.4361L65.7111 42.7549L65.4524 43.1689L65.2829 43.44L65.5447 43.6236C68.6117 45.774 72.3047 46.8417 76.6064 46.8417C78.9079 46.8417 80.9265 46.5803 82.6567 46.0506L82.6608 46.0493C84.454 45.4755 85.9749 44.3993 87.2209 42.8329C88.4809 41.249 89.1056 39.3442 89.1056 37.1372C89.1056 34.93 88.7383 33.0948 87.9809 31.6513C87.2338 30.1932 86.2493 29.044 85.0241 28.2152C83.8327 27.4092 82.5208 26.6923 81.0892 26.0638C79.6678 25.4398 78.2459 24.8848 76.8237 24.399C75.4563 23.8861 74.1933 23.3398 73.0341 22.7604C70.5012 21.4263 69.2841 19.5801 69.2841 17.2122C69.2841 15.24 70.0169 13.7212 71.4791 12.6165C72.9532 11.5027 75.0284 10.925 77.745 10.925C80.4908 10.925 83.4168 11.5182 86.5255 12.7139ZM108.042 45.7772L108.042 45.7772L108.048 45.7821C108.889 46.4702 110.063 46.7899 111.522 46.7899H114.679H115.016V46.4528V46.0387V45.7016H114.679H113.105L112.565 45.6035L112.549 45.6006L112.533 45.5992C112.255 45.5761 111.92 45.3861 111.534 44.9063C111.212 44.4321 111.031 43.7357 111.031 42.7783V26.5796C111.031 24.8302 110.583 23.37 109.662 22.2277L109.662 22.2276L109.658 22.2221C109.048 21.4976 108.099 20.9712 106.859 20.6159C105.64 20.2226 104.067 20.032 102.154 20.032C100.172 20.032 98.3558 20.7189 96.7142 22.0745C95.5573 23.0053 94.6508 23.9981 94.0039 25.0546V20.5762V20.239H93.6668H90.044H89.7069V20.5762V46.4528V46.7899H90.044H93.6668H94.0039V46.4528V28.0804C94.0039 26.8402 94.8006 25.3709 96.5422 23.6634L96.5422 23.6634L96.5446 23.661C98.2497 21.9559 100.151 21.1204 102.258 21.1204C103.289 21.1204 104.131 21.2864 104.797 21.6016C106.036 22.2711 106.734 23.8411 106.734 26.5278V42.7783V42.7882L106.734 42.7981L106.786 43.6768C106.828 44.4287 107.284 45.1278 108.042 45.7772ZM115.906 23.7017L115.904 23.7035C113.48 26.164 112.288 29.6057 112.288 33.9803C112.288 38.3487 113.442 41.6477 115.814 43.804C118.164 45.9404 121.2 46.9969 124.891 46.9969C128.629 46.9969 131.72 45.7771 134.135 43.3263C136.595 40.8661 137.804 37.424 137.804 33.0487C137.804 28.6802 136.65 25.3813 134.278 23.2249C131.927 21.088 128.874 20.032 125.15 20.032C121.445 20.032 118.355 21.2528 115.906 23.7017ZM119.002 24.5041L119.004 24.5021C120.674 22.2314 122.751 21.1204 125.253 21.1204C127.776 21.1204 129.782 22.0764 131.303 23.9944C132.821 25.9085 133.611 28.9054 133.611 33.0487C133.611 37.1456 132.757 40.3088 131.089 42.5771C129.421 44.813 127.343 45.9086 124.839 45.9086C122.317 45.9086 120.311 44.9526 118.789 43.0346C117.271 41.1201 116.482 38.14 116.482 34.032C116.482 29.8986 117.336 26.7366 119.002 24.5041ZM172.85 20.6483L172.604 20.8945L172.858 21.1327C173.322 21.5678 173.579 22.225 173.579 23.1639C173.579 24.1174 173.382 24.9199 173.003 25.5842L172.995 25.5969L172.989 25.6102L165.826 41.1229L158.189 20.4593L158.108 20.239H157.873H154.25H153.768L153.934 20.6922L155.801 25.7887L148.747 41.1214L141.111 20.4593L141.029 20.239H140.794H137.172H136.687L136.856 20.6937L146.482 46.5703L146.564 46.7899H146.798H147.315H147.532L147.622 46.5923L156.393 27.3073L163.56 46.5703L163.642 46.7899H163.876H164.394H164.611L164.701 46.5924L174.12 25.8911L174.12 25.8912L174.123 25.8843C174.553 24.8817 174.771 23.8878 174.771 22.9051C174.771 22.6374 174.734 22.3573 174.662 22.066C174.615 21.7242 174.449 21.3718 174.199 21.0137C174.093 20.8371 173.99 20.6867 173.891 20.5674C173.794 20.4509 173.68 20.34 173.55 20.2746L173.332 20.166L173.16 20.3378L172.85 20.6483Z" fill="#E6E6E6" stroke="#E6E6E6" stroke-width="0.674298"/>
<path d="M182.767 10.6683C183.699 9.23886 185.195 8.12849 187.267 7.98892L186.811 43.136V43.1403C186.811 43.4853 186.919 43.8483 187.106 44.2227C187.989 45.9898 190.084 46.7897 193.152 46.7897H194.756H195.093V46.4525V46.0385V45.7014H194.756H193.182L192.643 45.6033L192.627 45.6004L192.611 45.599C192.333 45.5759 191.998 45.3859 191.612 44.906C191.29 44.4319 191.108 43.7355 191.108 42.7781V7.68945V7.35777L190.777 7.35235L187.614 7.30059L187.276 7.29506L187.275 7.30593C183.78 7.38679 181.165 8.22287 179.505 9.88217C177.788 11.5638 176.972 14.3498 176.972 18.1436V20.2388H176.223H175.886V20.576V21.4122V21.7493H176.223H176.972V46.4525V46.7897H177.309H180.932H181.269V46.4525V21.7493H185.021H185.358V21.4122V20.576V20.2388H185.021H181.269V18.1436C181.269 14.6055 181.788 12.1374 182.765 10.6711L182.765 10.6711L182.767 10.6683ZM210.093 33.6657C209.421 33.6159 208.688 33.5911 207.895 33.5911C206.952 33.5911 205.926 33.6434 204.815 33.7474C202.58 33.8862 200.725 34.147 199.257 34.5338C197.793 34.9194 196.682 35.4384 195.967 36.1159C195.293 36.7537 194.844 37.3754 194.682 37.9817C194.538 38.5222 194.464 39.0347 194.464 39.5176C194.464 39.9495 194.5 40.3811 194.572 40.8122C194.874 42.8389 195.669 44.3994 196.985 45.4482C198.297 46.4943 200.084 46.9967 202.305 46.9967C204.215 46.9967 205.884 46.6029 207.298 45.8013C208.394 45.1798 209.326 44.3195 210.096 43.2272C210.134 43.9012 210.616 44.6116 211.383 45.3458C212.347 46.344 214.073 46.7897 216.434 46.7897H218.038H218.376V46.4525V46.0385V45.7014H218.038H216.464L215.925 45.6033L215.909 45.6004L215.893 45.599C215.615 45.5759 215.28 45.3859 214.894 44.906C214.572 44.4318 214.391 43.7355 214.391 42.7781V25.4408C214.391 24.2366 213.899 23.1073 212.959 22.0591C212.332 21.3558 211.393 20.8517 210.183 20.5224C208.971 20.1927 207.464 20.0318 205.669 20.0318C202.443 20.0318 199.273 20.751 196.161 22.1846L195.827 22.3386L196.009 22.6581L196.216 23.0204L196.383 23.3117L196.675 23.1466C197.43 22.7198 198.638 22.28 200.322 21.8334L200.322 21.8334L200.326 21.8322C202.033 21.3544 203.502 21.1201 204.738 21.1201C205.988 21.1201 206.973 21.2897 207.709 21.6097L207.708 21.6099L207.72 21.6145C208.484 21.9133 208.965 22.2606 209.222 22.631C209.517 23.0568 209.744 23.4963 209.906 23.9498L209.911 23.964L209.918 23.9777C210.108 24.3915 210.147 24.6899 210.102 24.898C210.066 25.0428 210.042 25.1806 210.042 25.2984C210.042 25.3577 210.048 25.4325 210.075 25.5075C210.08 25.5216 210.086 25.5362 210.093 25.5512V33.6657ZM198.863 40.7312L198.863 40.7312L198.863 40.7261C198.829 40.3896 198.813 40.0905 198.813 39.8281C198.813 38.3689 199.193 37.2691 199.914 36.4854C200.258 36.1118 200.825 35.7732 201.652 35.4892C202.475 35.2065 203.531 34.9861 204.828 34.8325C205.747 34.7305 206.666 34.6794 207.584 34.6794C208.434 34.6794 209.271 34.7064 210.093 34.7603V40.6926C209.996 41.7317 209.282 42.8774 207.83 44.1266C206.44 45.3187 204.878 45.9084 203.133 45.9084C201.836 45.9084 200.863 45.4829 200.17 44.6573C199.465 43.8178 199.016 42.5253 198.863 40.7312ZM222.776 7.6377V7.30055H222.439H218.816H218.479V7.6377V46.4525V46.7897H218.816H222.439H222.776V46.4525V34.1063L223.803 32.9268L233.131 46.6421L233.232 46.7897H233.41H237.033H237.67L237.312 46.2629L226.332 30.1258L234.594 20.7995L235.091 20.2388H234.342H233.824H233.673L233.572 20.3522L222.776 32.5226V7.6377ZM257.448 44.5601L257.32 44.2617L257.017 44.3782C254.371 45.3958 251.343 45.9084 247.926 45.9084C245.586 45.9084 243.7 44.9602 242.244 43.0416C240.826 41.1272 240.086 38.0762 240.086 33.8248C240.086 32.943 240.127 32.0894 240.208 31.2637H258.38H258.717V30.9266V30.9256V30.9246V30.9236V30.9226V30.9215V30.9205V30.9195V30.9185V30.9175V30.9165V30.9155V30.9145V30.9135V30.9124V30.9114V30.9104V30.9094V30.9084V30.9074V30.9064V30.9054V30.9044V30.9033V30.9023V30.9013V30.9003V30.8993V30.8983V30.8973V30.8963V30.8953V30.8942V30.8932V30.8922V30.8912V30.8902V30.8892V30.8882V30.8872V30.8862V30.8852V30.8841V30.8831V30.8821V30.8811V30.8801V30.8791V30.8781V30.8771V30.8761V30.875V30.874V30.873V30.872V30.871V30.87V30.869V30.868V30.867V30.8659V30.8649V30.8639V30.8629V30.8619V30.8609V30.8599V30.8589V30.8579V30.8568V30.8558V30.8548V30.8538V30.8528V30.8518V30.8508V30.8498V30.8488V30.8478V30.8467V30.8457V30.8447V30.8437V30.8427V30.8417V30.8407V30.8397V30.8387V30.8376V30.8366V30.8356V30.8346V30.8336V30.8326V30.8316V30.8306V30.8296V30.8285V30.8275V30.8265V30.8255V30.8245V30.8235V30.8225V30.8215V30.8205V30.8194V30.8184V30.8174V30.8164V30.8154V30.8144V30.8134V30.8124V30.8114V30.8104V30.8093V30.8083V30.8073V30.8063V30.8053V30.8043V30.8033V30.8023V30.8013V30.8002V30.7992V30.7982V30.7972V30.7962V30.7952V30.7942V30.7932V30.7922V30.7911V30.7901V30.7891V30.7881V30.7871V30.7861V30.7851V30.7841V30.7831V30.782V30.781V30.78V30.779V30.778V30.777V30.776V30.775V30.774V30.773V30.7719V30.7709V30.7699V30.7689V30.7679V30.7669V30.7659V30.7649V30.7639V30.7628V30.7618V30.7608V30.7598V30.7588V30.7578V30.7568V30.7558V30.7548V30.7537V30.7527V30.7517V30.7507V30.7497V30.7487V30.7477V30.7467V30.7457V30.7446V30.7436V30.7426V30.7416V30.7406V30.7396V30.7386V30.7376V30.7366V30.7356V30.7345V30.7335V30.7325V30.7315V30.7305V30.7295V30.7285V30.7275V30.7265V30.7254V30.7244V30.7234V30.7224V30.7214V30.7204V30.7194V30.7184V30.7174V30.7163V30.7153V30.7143V30.7133V30.7123V30.7113V30.7103V30.7093V30.7083V30.7073V30.7062V30.7052V30.7042V30.7032V30.7022V30.7012V30.7002V30.6992V30.6982V30.6971V30.6961V30.6951V30.6941V30.6931V30.6921V30.6911V30.6901V30.6891V30.688V30.687V30.686V30.685V30.684V30.683V30.682V30.681V30.68V30.6789V30.6779V30.6769V30.6759V30.6749V30.6739V30.6729V30.6719V30.6709V30.6698V30.6688V30.6678V30.6668V30.6658V30.6648V30.6638V30.6628V30.6618V30.6608V30.6597V30.6587V30.6577V30.6567V30.6557V30.6547V30.6537V30.6527V30.6517V30.6506V30.6496V30.6486V30.6476V30.6466V30.6456V30.6446V30.6436V30.6426V30.6415V30.6405V30.6395V30.6385V30.6375V30.6365V30.6355V30.6345V30.6335V30.6325V30.6314V30.6304V30.6294V30.6284V30.6274V30.6264V30.6254V30.6244V30.6234V30.6223V30.6213V30.6203V30.6193V30.6183V30.6173V30.6163V30.6153V30.6143V30.6132V30.6122V30.6112V30.6102V30.6092V30.6082V30.6072V30.6062V30.6052V30.6041V30.6031V30.6021V30.6011V30.6001V30.5991V30.5981V30.5971V30.5961V30.5951V30.594V30.593V30.592V30.591V30.59V30.589V30.588V30.587V30.586V30.5849V30.5839V30.5829V30.5819V30.5809V30.5799V30.5789V30.5779V30.5769V30.5758V30.5748V30.5738V30.5728V30.5718V30.5708V30.5698V30.5688V30.5678V30.5667V30.5657V30.5647V30.5637V30.5627V30.5617V30.5607V30.5597V30.5587V30.5577V30.5566V30.5556V30.5546V30.5536V30.5526V30.5516V30.5506V30.5496V30.5486V30.5475V30.5465V30.5455V30.5445V30.5435V30.5425V30.5415V30.5405V30.5395V30.5384V30.5374V30.5364V30.5354V30.5344V30.5334V30.5324V30.5314V30.5304V30.5293V30.5283V30.5273V30.5263V30.5253V30.5243V30.5233V30.5223V30.5213V30.5203V30.5192V30.5182V30.5172V30.5162V30.5152V30.5142V30.5132V30.5122V30.5112V30.5101V30.5091V30.5081V30.5071V30.5061V30.5051V30.5041V30.5031V30.5021V30.501V30.5V30.499V30.498V30.497V30.496V30.495V30.494V30.493V30.4919V30.4909V30.4899V30.4889V30.4879V30.4869V30.4859V30.4849V30.4839V30.4829V30.4818V30.4808V30.4798V30.4788V30.4778V30.4768V30.4758V30.4748V30.4738V30.4727V30.4717V30.4707V30.4697V30.4687V30.4677V30.4667V30.4657V30.4647V30.4636V30.4626V30.4616V30.4606V30.4596V30.4586V30.4576V30.4566V30.4556V30.4545V30.4535V30.4525V30.4515V30.4505V30.4495V30.4485V30.4475V30.4465V30.4455V30.4444V30.4434V30.4424V30.4414V30.4404V30.4394V30.4384V30.4374V30.4364V30.4353V30.4343V30.4333V30.4323V30.4313V30.4303V30.4293V30.4283V30.4273V30.4262V30.4252V30.4242V30.4232V30.4222V30.4212V30.4202V30.4192V30.4182V30.4172V30.4161V30.4151V30.4141V30.4131V30.4121V30.4111V30.4101V30.4091C258.717 27.0298 257.729 24.4232 255.704 22.6511C253.704 20.9011 251.242 20.0318 248.34 20.0318C244.736 20.0318 241.747 21.2548 239.402 23.7069C237.048 26.1678 235.893 29.6082 235.893 33.98C235.893 38.3442 236.993 41.6412 239.258 43.7985C241.504 45.9373 244.403 46.9967 247.926 46.9967C251.445 46.9967 254.61 46.4566 257.415 45.3696L257.741 45.2434L257.603 44.9224L257.448 44.5601ZM252.681 23.3714C253.815 24.8207 254.445 27.0703 254.518 30.1754H240.346C240.781 27.3691 241.708 25.1842 243.106 23.5947C244.607 21.9276 246.28 21.1201 248.133 21.1201C249.993 21.1201 251.501 21.8636 252.681 23.3714Z" fill="#E6E6E6" stroke="#E6E6E6" stroke-width="0.674298"/>
<path d="M263.156 7.09458V8.46183H261.601V12.6216H260.126V8.46183H258.571V7.09458H263.156Z" fill="#E6E6E6"/>
<path d="M269.215 7.01172V12.6465H267.739V9.91195L266.658 11.1963H266.216L265.135 9.91195V12.6465H263.659V7.01172H264.18L266.437 9.41477L268.694 7.01172H269.215Z" fill="#E6E6E6"/>
<path fill-rule="evenodd" clip-rule="evenodd" d="M25.3448 37.4498L25.3222 55.2205L29.0787 55.2253L29.1013 37.3724L35.9539 53.8577L39.4227 52.4158L32.6172 36.0438L45.1383 48.5968L47.7979 45.9439L35.2228 33.3368L51.6689 40.1622L53.1089 36.6927L36.6602 29.8663H54.4691V26.1098H36.7032L53.124 19.328L51.69 15.8559L35.3402 22.6084L47.9126 10.1647L45.27 7.49483L32.5407 20.0939L39.4003 3.54951L35.9302 2.11078L29.1252 18.5236L29.1478 0.756226L25.3913 0.751465L25.3686 18.606L18.5154 2.11907L15.0466 3.56095L21.8516 19.9317L9.33139 7.37964L6.67179 10.0325L19.2467 22.6394L2.80027 15.8139L1.36035 19.2834L17.8088 26.1098H0V29.8663H17.7668L1.34562 36.6482L2.77957 40.1203L19.13 33.3675L6.5571 45.8118L9.19965 48.4817L21.9273 35.8842L15.0686 52.4265L18.5387 53.8653L25.3448 37.4498Z" fill="#E6E6E6"/>
</svg>
