<svg width="263" height="60" viewBox="0 0 263 60" fill="none" xmlns="http://www.w3.org/2000/svg">
<path d="M71.3359 49.5853L74.2844 48.8482V17.3981L71.3359 16.6609V15.9238H84.604C89.5836 15.9238 93.2364 16.7265 95.5624 18.3317C97.9211 19.9042 99.1005 21.9681 99.1005 24.5235C99.1005 26.2925 98.5927 27.7176 97.5771 28.7987C96.5616 29.8798 95.2675 30.6825 93.695 31.2066C92.0242 31.7963 90.2224 32.1075 88.2895 32.1403V32.386C90.681 32.4843 92.7613 32.8447 94.5304 33.4671C96.3322 34.0568 97.8228 34.9741 99.0022 36.219C100.214 37.4639 100.82 39.0528 100.82 40.9856C100.82 43.9013 99.6247 46.1946 97.2332 47.8654C94.8416 49.5034 90.9595 50.3224 85.5868 50.3224H71.3359V49.5853ZM84.604 31.6489C85.6851 31.6489 86.6843 31.354 87.6015 30.7644C88.5516 30.1419 89.3051 29.2901 89.862 28.209C90.4517 27.0952 90.7466 25.8667 90.7466 24.5235C90.7466 23.082 90.4517 21.8043 89.862 20.6905C89.3051 19.5766 88.5516 18.7085 87.6015 18.086C86.6843 17.4636 85.6851 17.1523 84.604 17.1523H82.3926V31.6489H84.604ZM85.5868 49.0939C87.6179 49.0939 89.2723 48.3731 90.55 46.9317C91.8277 45.4902 92.4665 43.5082 92.4665 40.9856C92.4665 38.4631 91.8277 36.4811 90.55 35.0396C89.2723 33.5981 87.6179 32.8774 85.5868 32.8774H82.3926V49.0939H85.5868Z" fill="#E6E6E6"/>
<path d="M101.788 49.5853L104.736 48.8482V17.3981L101.788 16.6609V15.9238H108.176C111.125 15.9238 112.599 17.3981 112.599 20.3465V48.8482L115.547 49.5853V50.3224H101.788V49.5853Z" fill="#E6E6E6"/>
<path d="M129.053 51.0595C124.991 51.0595 121.797 49.9129 119.471 47.6197C117.178 45.2937 116.031 42.0995 116.031 38.0372C116.031 33.9749 117.178 30.7971 119.471 28.5039C121.797 26.1779 124.991 25.0149 129.053 25.0149C133.116 25.0149 136.293 26.1779 138.587 28.5039C140.913 30.7971 142.076 33.9749 142.076 38.0372C142.076 42.0995 140.913 45.2937 138.587 47.6197C136.293 49.9129 133.116 51.0595 129.053 51.0595ZM129.053 50.0767C130.364 50.0767 131.461 49.1594 132.346 47.3248C133.263 45.4902 133.722 42.3944 133.722 38.0372C133.722 33.68 133.263 30.5842 132.346 28.7496C131.461 26.915 130.364 25.9977 129.053 25.9977C127.743 25.9977 126.629 26.915 125.712 28.7496C124.827 30.5842 124.385 33.68 124.385 38.0372C124.385 42.3944 124.827 45.4902 125.712 47.3248C126.629 49.1594 127.743 50.0767 129.053 50.0767Z" fill="#E6E6E6"/>
<path d="M155.115 51.0595C153.084 51.0595 151.266 50.6172 149.661 49.7327C148.874 49.3068 148.236 48.8482 147.744 48.3568C147.22 49.0775 146.647 49.6344 146.024 50.0276C145.729 50.2241 145.402 50.4043 145.041 50.5681H143.813V42.2142H145.779C146.204 43.5901 146.827 44.8678 147.646 46.0471C149.382 48.5697 151.544 49.831 154.132 49.831C155.508 49.831 156.54 49.5034 157.228 48.8482C157.949 48.1602 158.309 47.1774 158.309 45.8997C158.309 44.8186 157.818 43.9177 156.835 43.197C155.885 42.4435 154.378 41.5262 152.314 40.4451C150.545 39.5606 149.104 38.7743 147.99 38.0863C146.909 37.3656 145.975 36.4811 145.189 35.4327C144.435 34.3516 144.059 33.0904 144.059 31.6489C144.059 29.6833 144.894 28.0944 146.565 26.8822C148.268 25.6373 150.873 25.0149 154.378 25.0149C156.114 25.0149 157.72 25.4735 159.194 26.3908C159.915 26.8167 160.537 27.259 161.061 27.7176C161.487 27.1279 162.061 26.571 162.781 26.0468C163.338 25.7192 163.666 25.5391 163.764 25.5063H164.993V33.8602H163.027C162.536 32.4515 161.929 31.1902 161.209 30.0764C159.571 27.5211 157.621 26.2434 155.361 26.2434C154.476 26.2434 153.723 26.571 153.101 27.2262C152.478 27.8814 152.167 28.7004 152.167 29.6833C152.167 30.9282 152.691 31.9765 153.739 32.8283C154.788 33.6473 156.377 34.5973 158.506 35.6784C160.242 36.563 161.618 37.3492 162.634 38.0372C163.682 38.6924 164.567 39.5114 165.287 40.4942C166.041 41.4771 166.418 42.6237 166.418 43.9341C166.418 48.6844 162.65 51.0595 155.115 51.0595Z" fill="#E6E6E6"/>
<path d="M179.196 51.0595C177.165 51.0595 175.347 50.6172 173.742 49.7327C172.955 49.3068 172.316 48.8482 171.825 48.3568C171.301 49.0775 170.728 49.6344 170.105 50.0276C169.81 50.2241 169.483 50.4043 169.122 50.5681H167.894V42.2142H169.859C170.285 43.5901 170.908 44.8678 171.727 46.0471C173.463 48.5697 175.625 49.831 178.213 49.831C179.589 49.831 180.621 49.5034 181.309 48.8482C182.03 48.1602 182.39 47.1774 182.39 45.8997C182.39 44.8186 181.899 43.9177 180.916 43.197C179.966 42.4435 178.459 41.5262 176.395 40.4451C174.626 39.5606 173.185 38.7743 172.071 38.0863C170.99 37.3656 170.056 36.4811 169.27 35.4327C168.516 34.3516 168.14 33.0904 168.14 31.6489C168.14 29.6833 168.975 28.0944 170.646 26.8822C172.349 25.6373 174.954 25.0149 178.459 25.0149C180.195 25.0149 181.801 25.4735 183.275 26.3908C183.996 26.8167 184.618 27.259 185.142 27.7176C185.568 27.1279 186.141 26.571 186.862 26.0468C187.419 25.7192 187.747 25.5391 187.845 25.5063H189.073V33.8602H187.108C186.616 32.4515 186.01 31.1902 185.29 30.0764C183.652 27.5211 181.702 26.2434 179.442 26.2434C178.557 26.2434 177.804 26.571 177.181 27.2262C176.559 27.8814 176.248 28.7004 176.248 29.6833C176.248 30.9282 176.772 31.9765 177.82 32.8283C178.869 33.6473 180.457 34.5973 182.587 35.6784C184.323 36.563 185.699 37.3492 186.715 38.0372C187.763 38.6924 188.648 39.5114 189.368 40.4942C190.122 41.4771 190.499 42.6237 190.499 43.9341C190.499 48.6844 186.731 51.0595 179.196 51.0595Z" fill="#E6E6E6"/>
<path d="M204.751 51.0595C200.689 51.0595 197.495 49.9129 195.169 47.6197C192.876 45.2937 191.729 42.0995 191.729 38.0372C191.729 33.9749 192.876 30.7971 195.169 28.5039C197.495 26.1779 200.689 25.0149 204.751 25.0149C208.814 25.0149 211.991 26.1779 214.285 28.5039C216.611 30.7971 217.774 33.9749 217.774 38.0372C217.774 42.0995 216.611 45.2937 214.285 47.6197C211.991 49.9129 208.814 51.0595 204.751 51.0595ZM204.751 50.0767C206.062 50.0767 207.159 49.1594 208.044 47.3248C208.961 45.4902 209.42 42.3944 209.42 38.0372C209.42 33.68 208.961 30.5842 208.044 28.7496C207.159 26.915 206.062 25.9977 204.751 25.9977C203.441 25.9977 202.327 26.915 201.41 28.7496C200.525 30.5842 200.083 33.68 200.083 38.0372C200.083 42.3944 200.525 45.4902 201.41 47.3248C202.327 49.1594 203.441 50.0767 204.751 50.0767Z" fill="#E6E6E6"/>
<path d="M219.265 49.5853L222.214 48.8482V27.2262L219.265 26.4891V25.752H223.688C225.621 25.752 227.144 26.3744 228.258 27.6193C228.684 28.1108 229.044 28.7168 229.339 29.4376C229.83 28.5203 230.355 27.7831 230.912 27.2262C232.386 25.752 234.073 25.0149 235.973 25.0149C237.873 25.0149 239.544 25.4408 240.985 26.2925C242.427 27.1116 243.541 28.2418 244.327 29.6833C244.818 28.7332 245.343 27.9633 245.899 27.3736C247.406 25.8011 249.094 25.0149 250.961 25.0149C252.697 25.0149 254.253 25.3752 255.629 26.096C257.038 26.8167 258.119 27.7995 258.873 29.0444C259.659 30.2893 260.052 31.6489 260.052 33.1231V48.8482L263 49.5853V50.3224H256.612C253.664 50.3224 252.19 48.8482 252.19 45.8997V33.1231C252.19 30.9937 251.862 29.4048 251.207 28.3565C250.551 27.2754 249.814 26.7348 248.995 26.7348C248.045 26.7348 247.079 27.39 246.096 28.7004C245.703 29.3229 245.359 29.9781 245.064 30.6661V48.8482L248.013 49.5853V50.3224H234.253V49.5853L237.202 48.8482V33.1231C237.202 30.9937 236.874 29.4048 236.219 28.3565C235.564 27.2754 234.826 26.7348 234.007 26.7348C233.057 26.7348 232.091 27.39 231.108 28.7004C230.715 29.3229 230.371 29.9781 230.076 30.6661V48.8482L233.025 49.5853V50.3224H219.265V49.5853Z" fill="#E6E6E6"/>
<path fill-rule="evenodd" clip-rule="evenodd" d="M31.3372 59.7058C31.0202 59.7682 30.6914 59.789 30.3583 59.7637C20.0647 58.9827 10.3216 53.2969 4.7705 43.682C-0.780724 34.067 -0.833161 22.7862 3.63746 13.4811C4.28651 12.1302 5.69351 11.3179 7.18796 11.4313C11.0239 11.7223 14.7834 12.6945 18.278 14.2973C20.9149 9.15573 24.8162 4.76957 29.5714 1.54925C30.8124 0.708845 32.4355 0.708845 33.6764 1.54925C38.3671 4.72584 42.2268 9.03683 44.8617 14.0883C48.2237 12.6098 51.8201 11.7094 55.4864 11.4313C56.9808 11.3179 58.3878 12.1302 59.0369 13.4811C63.5075 22.7862 63.4551 34.067 57.9038 43.682C52.3527 53.2969 42.6097 58.9827 32.3161 59.7637C31.9829 59.789 31.6542 59.7682 31.3372 59.7058ZM38.879 53.8772C45.0491 51.7788 50.5065 47.5203 54.0179 41.4385C58.6917 33.3431 58.8439 23.8767 55.241 15.9561C52.2824 16.2431 49.3867 16.9998 46.6699 18.1945C47.9953 21.8398 48.7182 25.7744 48.7182 29.8778C48.7182 39.2297 44.9634 47.7046 38.879 53.8772ZM40.8891 16.1748C38.6878 11.9488 35.4987 8.31723 31.6239 5.58495C27.6661 8.37575 24.4237 12.1047 22.2186 16.4471C25.7282 18.6915 28.8461 21.6439 31.3372 25.2413C33.9303 21.4965 37.2027 18.4506 40.8891 16.1748ZM33.8795 29.5933C36.1341 25.7474 39.1709 22.6397 42.6729 20.3568C43.6836 23.3459 44.2311 26.548 44.2311 29.8778C44.2311 37.565 41.3129 44.5715 36.5152 49.8492C37.8133 43.1824 37.0282 36.0818 33.8795 29.5933ZM28.7949 29.5933C26.6416 25.9203 23.775 22.9207 20.471 20.6697C19.5268 23.569 19.0167 26.6639 19.0167 29.8778C19.0167 37.1708 21.6432 43.8511 26.0095 49.0238C24.9297 42.5988 25.7758 35.8147 28.7949 29.5933ZM31.3372 52.0423C33.0216 46.6856 33.0909 40.842 31.3372 35.3022C29.5835 40.842 29.6527 46.6856 31.3372 52.0423ZM8.65648 41.4385C12.3273 47.7965 18.1251 52.1619 24.6405 54.1498C18.3964 47.9553 14.5296 39.3681 14.5296 29.8778C14.5296 25.8578 15.2234 21.9998 16.4978 18.4172C13.6394 17.0935 10.5717 16.2605 7.43335 15.9561C3.83043 23.8767 3.98261 33.3431 8.65648 41.4385Z" fill="#E6E6E6"/>
</svg>
