<svg width="236" height="61" viewBox="0 0 236 61" fill="none" xmlns="http://www.w3.org/2000/svg">
<path d="M80.5718 46.888C82.9548 48.0627 85.8076 48.6501 89.1303 48.6501C92.6208 48.6501 95.6246 47.9956 98.1418 46.6867C100.659 45.3777 102.639 43.6325 104.082 41.4509C105.526 39.2693 106.415 36.8696 106.751 34.2517H99.5515C99.1487 36.7018 97.9908 38.6148 96.0777 39.9909C94.1982 41.3334 91.8824 42.0047 89.1303 42.0047C87.2508 42.0047 85.5894 41.6858 84.1462 41.0481C82.7366 40.4104 81.5451 39.521 80.5718 38.3799C79.5985 37.2052 78.8601 35.8459 78.3567 34.3021C77.8868 32.7582 77.6519 31.08 77.6519 29.2677C77.6519 27.3882 77.8868 25.6765 78.3567 24.1326C78.8601 22.5887 79.5817 21.2462 80.5215 20.1051C81.4612 18.9639 82.6359 18.0913 84.0455 17.4872C85.4552 16.8495 87.0662 16.5307 88.8786 16.5307C90.6574 16.5307 92.2516 16.8327 93.6612 17.4368C95.0709 18.0074 96.2288 18.88 97.135 20.0547C98.0747 21.1959 98.6788 22.6055 98.9473 24.2836H106.147C105.844 21.3972 104.955 18.88 103.478 16.732C102.002 14.5505 100.021 12.8723 97.5377 11.6976C95.0876 10.4894 92.2013 9.88525 88.8786 9.88525C85.6901 9.88525 82.9212 10.439 80.5718 11.5466C78.256 12.6206 76.3429 14.0638 74.8326 15.8762C73.3223 17.6886 72.1979 19.7023 71.4596 21.9174C70.7548 24.1326 70.4023 26.3813 70.4023 28.6635V29.7711C70.4023 31.8184 70.7548 33.9496 71.4596 36.1648C72.1644 38.3799 73.2552 40.4272 74.7319 42.3067C76.2422 44.1862 78.1889 45.7133 80.5718 46.888Z" fill="#E6E6E6"/>
<path fill-rule="evenodd" clip-rule="evenodd" d="M125.42 44.3708C125.766 43.7842 126.051 43.1369 126.275 42.429V47.6935H131.813V30.7276C131.813 28.1769 131.327 26.1128 130.353 24.5353C129.414 22.9579 128.004 21.8 126.124 21.0616C124.278 20.3232 121.946 19.954 119.127 19.954C118.22 19.954 117.247 19.9708 116.207 20.0044C115.2 20.0044 114.21 20.0379 113.236 20.1051C112.263 20.1722 111.39 20.2393 110.618 20.3064V26.247C111.558 26.1799 112.615 26.1296 113.79 26.096C114.998 26.0289 116.19 25.9785 117.365 25.945C118.539 25.9114 119.546 25.8946 120.385 25.8946C121.996 25.8946 123.188 26.2806 123.96 27.0525C124.732 27.8245 125.118 28.9992 125.118 30.5766V30.8283H119.529C117.113 30.8283 114.998 31.1472 113.186 31.7849C111.407 32.4226 110.014 33.3791 109.007 34.6545C108.034 35.9298 107.548 37.5744 107.548 39.5882C107.548 41.4341 107.95 43.0116 108.756 44.3205C109.595 45.6294 110.753 46.6363 112.229 47.3411C113.74 48.0459 115.485 48.3984 117.465 48.3984C119.378 48.3984 120.989 48.0627 122.298 47.3915C123.641 46.6867 124.681 45.6798 125.42 44.3708ZM124.161 41.0985C124.732 40.2259 125.05 39.0512 125.118 37.5744V35.0069H119.429C117.818 35.0069 116.576 35.4096 115.703 36.2151C114.864 36.9871 114.445 37.9939 114.445 39.2358C114.445 40.4776 114.864 41.4845 115.703 42.2564C116.576 43.0283 117.818 43.4143 119.429 43.4143C120.402 43.4143 121.291 43.2465 122.097 42.9109C122.936 42.5417 123.624 41.9375 124.161 41.0985Z" fill="#E6E6E6"/>
<path d="M148.925 48.6501C146.542 48.6501 144.478 48.2473 142.732 47.4418C141.021 46.6363 139.578 45.5623 138.403 44.2198C137.262 42.8773 136.406 41.367 135.835 39.6889C135.265 38.0107 134.979 36.299 134.979 34.5538V33.5972C134.979 31.7513 135.265 29.9893 135.835 28.3111C136.439 26.5994 137.329 25.0891 138.504 23.7802C139.678 22.4377 141.121 21.3804 142.833 20.6085C144.578 19.803 146.592 19.4003 148.874 19.4003C151.257 19.4003 153.389 19.8701 155.268 20.8099C157.148 21.7161 158.641 22.9915 159.749 24.636C160.89 26.2806 161.527 28.1937 161.662 30.3752H154.865C154.697 28.9656 154.093 27.7909 153.053 26.8512C152.046 25.9114 150.653 25.4415 148.874 25.4415C147.33 25.4415 146.038 25.8107 144.998 26.5491C143.991 27.2875 143.236 28.3111 142.732 29.6201C142.229 30.8955 141.977 32.3722 141.977 34.0503C141.977 35.6613 142.212 37.1213 142.682 38.4303C143.185 39.7392 143.941 40.7629 144.948 41.5012C145.988 42.2396 147.314 42.6088 148.925 42.6088C150.133 42.6088 151.173 42.3906 152.046 41.9543C152.919 41.518 153.607 40.9139 154.11 40.142C154.647 39.37 154.983 38.4974 155.117 37.5241H161.913C161.779 39.7392 161.125 41.6858 159.95 43.364C158.809 45.0085 157.282 46.3007 155.369 47.2404C153.489 48.1802 151.341 48.6501 148.925 48.6501Z" fill="#E6E6E6"/>
<path d="M170.641 47.0894C172.285 47.7271 174.366 48.0459 176.883 48.0459H180.81V42.055H176.531C175.188 42.055 174.148 41.7026 173.41 40.9978C172.705 40.2594 172.352 39.219 172.352 37.8765L172.377 25.4919H180.81V20.3568H172.387L172.403 12.6542H165.858L165.842 20.3568H161.478V25.4919H165.832L165.808 37.4234C165.808 40.0748 166.21 42.1893 167.016 43.7667C167.821 45.3106 169.03 46.4182 170.641 47.0894Z" fill="#E6E6E6"/>
<path d="M193.48 48.5494C190.325 48.5494 187.875 47.5089 186.13 45.4281C184.418 43.3472 183.562 40.2594 183.562 36.1648V20.3064H190.56V36.7689C190.56 38.447 191.03 39.7895 191.97 40.7964C192.909 41.7697 194.185 42.2564 195.796 42.2564C197.407 42.2564 198.716 41.7362 199.723 40.6957C200.763 39.6553 201.283 38.2457 201.283 36.4668V20.3064H208.281V47.6935H202.743V41.3276C202.602 41.9067 202.434 42.4513 202.24 42.9612C201.535 44.8072 200.478 46.2 199.068 47.1398C197.658 48.0795 195.896 48.5494 193.782 48.5494H193.48Z" fill="#E6E6E6"/>
<path d="M214.859 46.1832C217.008 47.7607 219.961 48.5494 223.72 48.5494C226.137 48.5494 228.234 48.1802 230.013 47.4418C231.792 46.7034 233.168 45.6798 234.141 44.3708C235.148 43.0283 235.652 41.4509 235.652 39.6385C235.652 37.1884 234.729 35.2418 232.883 33.7986C231.07 32.3554 228.553 31.466 225.331 31.1304L222.915 30.8787C221.438 30.7109 220.364 30.392 219.693 29.9221C219.055 29.4523 218.736 28.781 218.736 27.9084C218.736 27.0022 219.139 26.2638 219.944 25.6932C220.75 25.1227 221.891 24.8374 223.368 24.8374C225.012 24.8374 226.271 25.173 227.143 25.8443C228.016 26.5155 228.486 27.321 228.553 28.2608H234.846C234.745 25.408 233.655 23.2432 231.574 21.7664C229.493 20.2897 226.774 19.5513 223.418 19.5513C221.27 19.5513 219.357 19.8869 217.679 20.5582C216.034 21.1959 214.742 22.1524 213.802 23.4278C212.863 24.7031 212.393 26.2806 212.393 28.1601C212.393 30.5095 213.215 32.389 214.859 33.7986C216.504 35.2082 218.853 36.0809 221.908 36.4165L224.324 36.6682C226.137 36.836 227.412 37.1884 228.15 37.7254C228.922 38.2624 229.308 38.984 229.308 39.8902C229.308 40.9307 228.805 41.753 227.798 42.3571C226.825 42.9612 225.499 43.2633 223.821 43.2633C221.807 43.2633 220.33 42.8773 219.39 42.1054C218.451 41.3334 217.93 40.4776 217.83 39.5378H211.537C211.637 42.3571 212.745 44.5722 214.859 46.1832Z" fill="#E6E6E6"/>
<path fill-rule="evenodd" clip-rule="evenodd" d="M30.7253 0C14.0442 0 0.521484 13.5227 0.521484 30.2038C0.521484 46.8849 14.0442 60.4077 30.7253 60.4077C47.4064 60.4077 60.9291 46.8849 60.9291 30.2038C60.9291 13.5227 47.4064 0 30.7253 0ZM7.29419 30.2038C7.29419 17.2632 17.7847 6.77271 30.7253 6.77271C43.666 6.77271 54.1564 17.2632 54.1564 30.2038C54.1564 42.0137 45.4191 51.783 34.056 53.4V48.2316L40.07 46.0114C43.5457 44.7284 45.854 41.4157 45.854 37.7108V27.5343C45.854 25.664 44.3378 24.1479 42.4676 24.1479C40.5974 24.1479 39.0813 25.664 39.0813 27.5343V37.7108C39.0813 38.5798 38.5398 39.3569 37.7245 39.6578L34.056 41.0121V14.2075C34.056 12.3373 32.5399 10.8212 30.6697 10.8212C28.7994 10.8212 27.2833 12.3373 27.2833 14.2075V28.7373L23.7244 27.4235C22.9091 27.1225 22.3676 26.3455 22.3676 25.4764V21.0895C22.3676 19.2192 20.8515 17.7031 18.9813 17.7031C17.111 17.7031 15.5949 19.2192 15.5949 21.0895V25.4764C15.5949 29.1813 17.9032 32.494 21.3789 33.7771L27.2833 35.9567V53.3839C15.9745 51.7191 7.29419 41.9752 7.29419 30.2038Z" fill="#E6E6E6"/>
</svg>
