<svg width="56" height="56" viewBox="0 0 56 56" fill="none" xmlns="http://www.w3.org/2000/svg">
<circle cx="28" cy="28" r="28" fill="#F3F1EF"/>
<path d="M25.0795 21.5906L25.0798 21.5912C25.2534 22.0024 25.5426 22.7505 25.7747 23.3512L25.7778 23.3591C25.869 23.5953 25.9516 23.8089 26.0161 23.9735C26.0483 24.0558 26.0755 24.1246 26.0967 24.177C26.1073 24.2033 26.116 24.2244 26.1228 24.2405C26.1296 24.2567 26.1327 24.2636 26.1331 24.2645L26.1331 24.2646L25.6811 24.4782M25.0795 21.5906L25.116 26.8092C25.1181 26.8062 25.1207 26.8026 25.1237 26.7986C25.1431 26.7732 25.1687 26.7451 25.2132 26.6982L25.2134 26.6979C25.3267 26.578 25.4517 26.4175 25.5579 26.2811L25.5674 26.2689C25.6328 26.1849 25.6937 26.1069 25.7511 26.0368L25.7512 26.0367C25.9441 25.8013 26.0308 25.6102 26.1208 25.4115L26.1251 25.4022L26.1251 25.4022L26.1618 25.3216C26.1618 25.3215 26.1618 25.3215 26.1618 25.3215C26.1618 25.3215 26.1618 25.3215 26.1618 25.3215C26.36 24.89 26.2517 24.5154 26.1331 24.2645L25.6811 24.4782M25.0795 21.5906C24.9297 21.2372 24.7436 20.977 24.4905 20.8211C24.2427 20.6686 23.9976 20.6619 23.8728 20.6584C23.8696 20.6584 23.8664 20.6583 23.8633 20.6582M25.0795 21.5906L25.7074 25.1129C25.8196 24.8688 25.7668 24.6595 25.6811 24.4782M25.6811 24.4782C25.6435 24.3988 25.4936 24.0109 25.3114 23.5394L25.3114 23.5394L25.3114 23.5393C25.0772 22.9335 24.7898 22.1898 24.6192 21.7858C24.3619 21.1789 24.0914 21.1649 23.8475 21.1579L23.865 20.6582C23.8644 20.6582 23.8639 20.6582 23.8633 20.6582M29.6083 30.9765C29.5398 30.9403 29.4528 30.9004 29.3676 30.8613L29.3574 30.8567L29.3557 30.8559C28.8907 30.6427 27.9937 30.2315 26.9547 29.2486L26.9539 29.2479C25.9892 28.3395 25.3267 27.2016 25.1372 26.8544L29.3746 31.4185M29.6083 30.9765L29.3746 31.4185M29.6083 30.9765C29.6083 30.9765 29.6083 30.9765 29.6083 30.9765L29.3746 31.4185M29.6083 30.9765C29.6587 31.0031 29.695 31.0183 29.7199 31.0268M29.3746 31.4185C29.7177 31.5998 29.9221 31.5719 30.1199 31.3278C30.3179 31.0836 30.9774 30.2675 31.2083 29.9048M29.7199 31.0268C29.7033 31.0457 29.6948 31.0519 29.6948 31.0519C29.6948 31.0519 29.695 31.0518 29.6953 31.0515C29.7021 31.0471 29.7188 31.0392 29.7398 31.0365C29.7486 31.0354 29.7538 31.0359 29.7543 31.0359C29.7548 31.036 29.75 31.0356 29.7385 31.0325C29.7332 31.0311 29.7271 31.0292 29.7199 31.0268ZM29.7199 31.0268C29.7234 31.0228 29.7273 31.0182 29.7315 31.013L29.7315 31.013C29.9388 30.7573 30.572 29.9723 30.785 29.6387M30.785 29.6387C30.7844 29.6398 30.7837 29.6408 30.7831 29.6419L31.2083 29.9048M30.785 29.6387C30.7855 29.6379 30.7861 29.6371 30.7866 29.6363L31.2083 29.9048M30.785 29.6387C30.9452 29.3811 31.1727 29.1756 31.4974 29.135C31.767 29.1012 32.018 29.2007 32.1639 29.2585L32.1643 29.2587L32.1643 29.2587C32.3509 29.3327 32.8804 29.5989 33.3718 29.8503C33.8781 30.1092 34.388 30.3754 34.5618 30.4672L34.5618 30.4673C34.6258 30.5011 34.6859 30.5317 34.745 30.5618L34.7589 30.5689C34.8668 30.6239 34.9874 30.6853 35.0887 30.751C35.1953 30.8202 35.3317 30.9255 35.4241 31.0909L31.98 29.7235M31.2083 29.9048C31.4326 29.5422 31.6634 29.598 31.98 29.7235M31.98 29.7235C32.2966 29.849 33.9851 30.7279 34.328 30.9092L31.98 29.7235ZM23.8633 20.6582C23.657 20.651 23.4197 20.651 23.1936 20.651H23.1879C22.8326 20.651 22.3183 20.7899 21.8944 21.2755M23.8633 20.6582L21.8944 21.2755M21.8944 21.2755C21.8775 21.2949 21.8583 21.3164 21.8353 21.3422L21.8353 21.3422C21.4506 21.7742 20.5706 22.7685 20.5706 24.6387C20.5706 25.6252 20.9043 26.5703 21.2443 27.2843C21.5873 28.0045 21.9558 28.5284 22.0592 28.6754C22.0592 28.6754 22.0592 28.6754 22.0592 28.6754L22.0592 28.6754L22.0663 28.6855C22.0663 28.6854 22.0663 28.6855 22.0663 28.6855C22.0666 28.6859 22.0709 28.6922 22.0823 28.7098L22.1238 28.7749L22.5456 28.5064L22.1238 28.7749L22.1302 28.7849C22.5712 29.4775 24.7739 32.9372 28.1529 34.349C29.481 34.9044 30.3593 35.1703 30.9952 35.2837C31.651 35.4005 32.037 35.3523 32.3508 35.3119C32.4134 35.3039 32.4661 35.2971 32.5179 35.292C32.9565 35.2483 33.5468 34.9752 34.0399 34.6377C34.531 34.3017 35.0646 33.8078 35.263 33.226L35.2641 33.2227C35.4189 32.7584 35.4977 32.3246 35.5256 31.9783C35.5395 31.8056 35.5413 31.6474 35.5314 31.5132C35.5234 31.405 35.5036 31.2333 35.4242 31.091L21.8944 21.2755ZM21.9532 39.7808C21.8372 39.714 21.6992 39.6965 21.5701 39.7323L15.427 41.4372C15.4258 41.4375 15.425 41.4377 15.4244 41.4378C15.4226 41.4369 15.4182 41.4344 15.4127 41.4284C15.3975 41.4121 15.3859 41.3837 15.3957 41.3457L17.0366 35.0175C17.0684 34.8946 17.0523 34.7642 16.9916 34.6527C15.869 32.5933 15.2775 30.2558 15.2783 27.8752V27.8751C15.2783 20.3821 21.0429 14.334 28.0555 14.334C31.4684 14.334 34.6694 15.7387 37.0846 18.2928C39.5002 20.8475 40.8329 24.2528 40.8329 27.882C40.8329 35.3748 35.0683 41.423 28.0556 41.423H28.049C25.9154 41.423 23.818 40.854 21.9532 39.7808Z" fill="#1C1D21" stroke="#1C1D21" stroke-linejoin="round"/>
</svg>
