<svg width="84" height="84" viewBox="0 0 84 84" fill="none" xmlns="http://www.w3.org/2000/svg">
<circle cx="41.9998" cy="41.9998" r="41.2498" fill="#1C1D21" stroke="#1C1D21" stroke-width="1.5"/>
<path fill-rule="evenodd" clip-rule="evenodd" d="M54.3973 59.5297L54.3989 59.5259L54.4403 59.428L61.5623 25.4103V25.2998C61.5623 24.4522 61.2318 23.7123 60.5124 23.2684C59.8828 22.88 59.159 22.8523 58.6515 22.8888C58.1147 22.9274 57.6085 23.0543 57.2581 23.16C57.0778 23.2143 56.927 23.2667 56.8191 23.3063C56.7649 23.3262 56.721 23.3431 56.6891 23.3557L56.6577 23.3682L16.9484 38.1257L16.9374 38.1294C16.916 38.1368 16.8876 38.1468 16.8534 38.1595C16.7851 38.1846 16.6921 38.2207 16.5829 38.2676C16.3685 38.3596 16.0723 38.5017 15.7718 38.6966C15.2615 39.0277 14.2899 39.8114 14.454 41.0539C14.5899 42.083 15.3387 42.7367 15.8436 43.0751C16.1142 43.2565 16.3731 43.3873 16.5627 43.4728C16.6588 43.5161 16.7404 43.5493 16.8011 43.5728C16.8316 43.5845 16.8571 43.5939 16.8768 43.601L16.902 43.6099L16.9181 43.6156L23.8656 45.8314C23.8421 46.2443 23.8853 46.6654 24.0009 47.0808L27.481 59.5872C27.8936 61.07 29.3096 62.103 30.9283 62.1019C32.3793 62.1009 33.6661 61.2693 34.2128 60.0286L39.646 54.525L48.9773 61.3024L49.11 61.3573C49.9578 61.7078 50.7499 61.8188 51.4741 61.7251C52.1972 61.6315 52.7719 61.3442 53.2036 61.017C53.6284 60.695 53.9195 60.3317 54.1026 60.0581C54.1956 59.9191 54.2649 59.797 54.313 59.705C54.3372 59.6588 54.3563 59.6197 54.3705 59.5893L54.3884 59.5501L54.3948 59.5356L54.3973 59.5297ZM27.4456 46.2205C27.3665 45.9362 27.4907 45.6362 27.7526 45.4786L51.3173 31.3016C51.3173 31.3016 52.7033 30.5045 52.6538 31.3016C52.6538 31.3016 52.9011 31.4424 52.1584 32.0988C51.4539 32.7222 35.3633 47.4395 33.7351 48.9287C33.6411 49.0147 33.585 49.1133 33.5519 49.233L30.9256 58.7268L27.4456 46.2205Z" fill="#F3F1EF"/>
</svg>
