<svg width="84" height="84" viewBox="0 0 84 84" fill="none" xmlns="http://www.w3.org/2000/svg">
<circle cx="41.9998" cy="41.9998" r="41.2498" fill="#1C1D21" stroke="#1C1D21" stroke-width="1.5"/>
<path d="M37.6177 32.3849L37.6181 32.3858C37.8786 33.0025 38.3123 34.1247 38.6605 35.0257L38.6651 35.0377C38.802 35.3918 38.9259 35.7123 39.0225 35.9592C39.0709 36.0827 39.1117 36.1858 39.1435 36.2645C39.1594 36.3039 39.1724 36.3356 39.1826 36.3597C39.1929 36.3841 39.1975 36.3945 39.1981 36.3957L39.1982 36.3959L38.52 36.7162M37.6177 32.3849L35.796 30.9863L35.7697 31.7359M37.6177 32.3849C37.393 31.8548 37.1139 31.4645 36.7342 31.2307C36.3626 31.0018 35.9949 30.9918 35.8077 30.9866C35.8028 30.9865 35.7981 30.9864 35.7935 30.9863M37.6177 32.3849L35.7935 30.9863M38.52 36.7162L39.1981 36.3957C39.376 36.772 39.5385 37.334 39.2412 37.9813M38.52 36.7162C38.6486 36.9882 38.7278 37.3021 38.5596 37.6682M38.52 36.7162C38.4638 36.5971 38.2389 36.0152 37.9656 35.3081L37.9656 35.308C37.6143 34.3992 37.1832 33.2836 36.9272 32.6776C36.5413 31.7673 36.1356 31.7463 35.7697 31.7359M39.2412 37.9813L38.5596 37.6682M39.2412 37.9813C39.2412 37.9812 39.2412 37.9812 39.2412 37.9812L38.5596 37.6682M39.2412 37.9813C39.2222 38.0226 39.2042 38.0623 39.1861 38.1022L38.5247 37.8023L39.1861 38.1022L39.1797 38.1163C39.0446 38.4142 38.9147 38.7008 38.6253 39.0539L38.6252 39.0541C38.5389 39.1593 38.4477 39.2763 38.3496 39.4022L38.3352 39.4207C38.1759 39.6253 37.9885 39.866 37.8186 40.0458L37.8182 40.0462C37.7516 40.1166 37.7131 40.1588 37.6841 40.1969C37.6795 40.2029 37.6756 40.2082 37.6724 40.2127M38.5596 37.6682C38.5399 37.7112 38.5212 37.7523 38.5033 37.7919L38.503 37.7925C38.3681 38.09 38.2721 38.3017 38.0452 38.5785C37.9519 38.6923 37.8548 38.8171 37.7579 38.9414C37.5876 39.16 37.4185 39.3772 37.2735 39.5307C37.0163 39.8025 36.749 40.0957 37.0458 40.6397M37.6724 40.2127C37.6649 40.1924 37.6645 40.1846 37.6649 40.188C37.6662 40.1987 37.6645 40.2176 37.6591 40.2327C37.6584 40.2348 37.6579 40.2359 37.6579 40.2359C37.6579 40.2359 37.6613 40.2286 37.6724 40.2127ZM37.6724 40.2127C37.6781 40.228 37.6878 40.2504 37.7042 40.2805M37.7042 40.2805C37.7042 40.2805 37.7041 40.2804 37.7041 40.2803L37.0458 40.6397M37.7042 40.2805L37.0458 40.6397M37.7042 40.2805C37.9886 40.8014 38.9822 42.5082 40.4292 43.8707L40.4305 43.8719C41.989 45.3462 43.3344 45.9629 44.0319 46.2827L44.0346 46.2839L43.722 46.9657M37.0458 40.6397C37.3428 41.1837 38.3816 42.9729 39.9151 44.4167L44.4109 46.4636M35.7697 31.7359L35.791 30.9862C35.7918 30.9862 35.7927 30.9862 35.7935 30.9863M35.7697 31.7359L35.7935 30.9863M35.7935 30.9863C35.4841 30.9755 35.1281 30.9755 34.7889 30.9755H34.7803C34.2474 30.9755 33.4759 31.1838 32.8401 31.9122C32.8147 31.9413 32.786 31.9736 32.7515 32.0123L32.7515 32.0123C32.1744 32.6603 30.8544 34.1517 30.8544 36.957C30.8544 38.4367 31.3549 39.8544 31.865 40.9254C32.3795 42.0058 32.9322 42.7915 33.0873 43.012L33.0873 43.012L33.0979 43.0271C33.0979 43.027 33.1041 43.0362 33.1219 43.0637C33.138 43.0887 33.1582 43.1205 33.1842 43.1613L33.8168 42.7584L33.1842 43.1613L33.1937 43.1762C33.8552 44.2152 37.1593 49.4046 42.2279 51.5224C44.2199 52.3555 45.5374 52.7544 46.4912 52.9244C47.4749 53.0996 48.0539 53.0273 48.5246 52.9668C48.6185 52.9547 48.6975 52.9446 48.7752 52.9368C49.4331 52.8713 50.3186 52.4617 51.0583 51.9555C51.7949 51.4514 52.5953 50.7106 52.8929 49.8379L52.8946 49.8329C53.1267 49.1365 53.2449 48.4859 53.2868 47.9663C53.3076 47.7072 53.3104 47.47 53.2955 47.2686C53.2835 47.1065 53.2538 46.8488 53.1347 46.6354L35.7935 30.9863ZM43.722 46.9657L43.7222 46.9657C43.8628 47.0302 43.9768 47.0824 44.0604 47.1266L44.4109 46.4636M43.722 46.9657L44.4109 46.4636M43.722 46.9657L44.0346 46.2839L44.05 46.2909C44.1777 46.3495 44.3081 46.4093 44.4109 46.4636M44.5957 46.5184L44.5957 46.5183C44.9067 46.1348 45.8566 44.9571 46.1761 44.4568C46.4162 44.0704 46.7575 43.7624 47.2445 43.7014C47.649 43.6508 48.0255 43.8 48.2443 43.8867L48.2448 43.887L48.2449 43.887C48.5248 43.998 49.319 44.3973 50.0561 44.7743C50.8156 45.1628 51.5804 45.5619 51.841 45.6997L51.8411 45.6998C51.937 45.7505 52.0273 45.7965 52.1159 45.8417L52.1367 45.8523C52.2986 45.9347 52.4795 46.0268 52.6315 46.1255C52.7913 46.2292 52.996 46.3872 53.1345 46.6352L44.5957 46.5184ZM44.5957 46.5184C44.5894 46.5262 44.5836 46.533 44.5783 46.539M44.5957 46.5184L44.5783 46.539M44.5783 46.539C44.541 46.5263 44.4865 46.5035 44.4109 46.4636L44.5783 46.539ZM32.9283 59.67C32.7542 59.5698 32.5472 59.5436 32.3537 59.5973L23.139 62.1546C23.1373 62.155 23.136 62.1553 23.1352 62.1555C23.1325 62.1542 23.1259 62.1505 23.1175 62.1415C23.0947 62.1169 23.0773 62.0744 23.0922 62.0173L25.5534 52.5251C25.6012 52.3408 25.577 52.1452 25.4859 51.9779C23.802 48.8888 22.9148 45.3826 22.916 41.8118V41.8115C22.916 30.5722 31.5629 21.5 42.0817 21.5C47.201 21.5 52.0025 23.607 55.6253 27.4382C59.2486 31.2702 61.2476 36.3782 61.2476 41.8219C61.2476 53.0611 52.6008 62.1333 42.0818 62.1333H42.072C38.8716 62.1333 35.7255 61.2798 32.9283 59.67Z" fill="#F3F1EF" stroke="#1C1D21" stroke-width="1.5" stroke-linejoin="round"/>
</svg>
