<svg width="58" height="60" viewBox="0 0 58 60" fill="none" xmlns="http://www.w3.org/2000/svg">
<path d="M51.9667 45.9524H46.453C44.367 45.9524 43.7397 44.2049 39.9984 40.3347C36.7333 37.0781 35.354 36.6716 34.5263 36.6716C33.3851 36.6716 33.0714 36.9961 33.0714 38.6263V43.7554C33.0714 45.1432 32.6368 45.9563 29.1336 45.9563C25.7338 45.72 22.4369 44.6514 19.5144 42.8387C16.592 41.026 14.1276 38.521 12.3244 35.53C8.04335 30.0178 5.0646 23.5483 3.625 16.6361C3.625 15.7799 3.93866 15.0059 5.51453 15.0059H11.0244C12.4415 15.0059 12.9517 15.6587 13.5072 17.1638C16.1828 25.3109 20.7479 32.3947 22.5996 32.3947C23.3101 32.3947 23.62 32.0702 23.62 30.2368V21.8472C23.3857 18.02 21.4206 17.6955 21.4206 16.3116C21.4458 15.9466 21.6075 15.6061 21.8714 15.3623C22.1352 15.1185 22.4805 14.9907 22.8339 15.0059H31.4955C32.6784 15.0059 33.0714 15.6157 33.0714 17.0817V28.4033C33.0714 29.6269 33.5816 30.0335 33.9368 30.0335C34.6473 30.0335 35.1952 29.6269 36.4952 28.2821C39.2874 24.7595 41.5687 20.835 43.2673 16.6322C43.4409 16.1273 43.7694 15.6951 44.2027 15.4015C44.636 15.1078 45.1503 14.9689 45.667 15.0059H51.1806C52.8321 15.0059 53.1835 15.862 52.8321 17.0817C50.8273 21.7277 48.3466 26.138 45.4327 30.2368C44.8394 31.175 44.6013 31.6637 45.4327 32.7622C45.9807 33.6184 47.9118 35.2877 49.2118 36.8749C51.1009 38.8242 52.6697 41.0796 53.8562 43.5521C54.3286 45.1393 53.5388 45.9524 51.9667 45.9524Z" fill="white"/>
</svg>
