<svg width="49" height="49" viewBox="0 0 49 49" fill="none" xmlns="http://www.w3.org/2000/svg">
<path d="M19.7796 15.3376L19.7799 15.3382C20.0445 15.9278 20.4864 17.0042 20.8428 17.872L20.8462 17.8803C21.1324 18.5772 21.3501 19.1064 21.3965 19.1988C21.5636 19.5315 21.7072 20.0086 21.4394 20.5572M19.7796 15.3376L19.8773 22.942C19.8274 22.8559 19.8154 22.8042 19.8125 22.7809C19.8101 22.7613 19.8123 22.7502 19.817 22.7375C19.8236 22.7201 19.8389 22.6909 19.876 22.6452C19.9145 22.5977 19.9624 22.5488 20.0297 22.4818L20.03 22.4815C20.1952 22.3169 20.3805 22.0931 20.5461 21.8929L20.5569 21.8799C20.6566 21.7594 20.7517 21.6446 20.842 21.5409L20.8421 21.5408C21.1179 21.224 21.2403 20.9701 21.3782 20.6837L21.3828 20.6743C21.4012 20.636 21.4198 20.5974 21.4394 20.5572M19.7796 15.3376C19.5583 14.8464 19.2985 14.5207 18.9759 14.3337C18.6618 14.1516 18.3531 14.1435 18.1671 14.1386L18.1585 14.1384C18.158 14.1384 18.1574 14.1384 18.1568 14.1383C17.846 14.1281 17.4865 14.1281 17.1376 14.1281H17.132C16.6641 14.1281 15.9564 14.3 15.3616 14.9414C15.3347 14.9704 15.3045 15.0023 15.2695 15.0393L15.6327 15.383L15.2695 15.0393C14.6969 15.6445 13.3899 17.0295 13.3899 19.6545C13.3899 21.0363 13.8874 22.3681 14.4011 23.3832C14.9181 24.405 15.4736 25.1483 15.6294 25.3568L15.6295 25.3569L15.6295 25.3569L15.6404 25.3715C15.6507 25.3853 15.6777 25.4249 15.7344 25.5087L16.1485 25.2285M19.7796 15.3376L31.3423 34.2907M21.4394 20.5572L20.9901 20.3379L21.4395 20.5571C21.4395 20.5571 21.4395 20.5571 21.4394 20.5572ZM29.4133 27.244C29.7567 26.7213 30.1101 26.8017 30.595 26.9826C31.0797 27.1635 33.6653 28.4301 34.1904 28.6915C34.2942 28.7431 34.3913 28.7897 34.4813 28.8329M29.4133 27.244L28.9992 26.9638C28.9986 26.9646 28.9981 26.9655 28.9975 26.9663M29.4133 27.244L28.9954 26.9694C28.9961 26.9684 28.9968 26.9673 28.9975 26.9663M29.4133 27.244C29.0597 27.7666 28.0499 28.9428 27.7468 29.2947C27.4438 29.6465 27.1308 29.6867 26.6055 29.4254L26.8282 28.9778C27.058 29.092 27.162 29.098 27.2011 29.0934C27.2182 29.0914 27.2671 29.0855 27.3679 28.9684L27.3679 28.9684C27.6809 28.605 28.6628 27.4599 28.9975 26.9663M28.9975 26.9663C29.2226 26.625 29.5119 26.3978 29.8926 26.3529C30.2206 26.3142 30.5382 26.4278 30.7698 26.5142L30.7698 26.5142C31.0396 26.6148 31.8345 26.9905 32.5944 27.3564C33.3687 27.7291 34.1484 28.1121 34.4131 28.2438L34.4132 28.2439C34.5133 28.2937 34.6072 28.3387 34.6975 28.382L34.4813 28.8329M34.4813 28.8329L34.6975 28.382L34.7133 28.3896C34.8831 28.471 35.0562 28.554 35.199 28.6412C35.3457 28.7308 35.516 28.8568 35.6303 29.0495C35.6303 29.0495 35.6304 29.0496 35.6304 29.0496L35.2004 29.3047C35.3317 29.5258 35.3317 30.5713 34.8974 31.7977L34.4813 28.8329ZM31.3423 34.2907C31.2505 34.2994 31.1591 34.3104 31.0651 34.3218M31.3423 34.2907L31.3887 34.7886C31.3889 34.7886 31.3891 34.7885 31.3892 34.7885M31.3423 34.2907L31.3892 34.7885M31.0651 34.3218C30.1766 34.4293 29.0486 34.5657 25.0299 32.9839C20.0781 31.0366 16.8094 26.2053 16.1485 25.2285M31.0651 34.3218L31.1252 34.8182C31.2203 34.8067 31.3051 34.7965 31.3892 34.7885M31.0651 34.3218L31.1252 34.8182C30.6586 34.8746 30.101 34.9409 29.1386 34.7795C28.1947 34.6211 26.8717 34.2462 24.847 33.4492M16.1485 25.2285L15.7344 25.5087L15.7403 25.5174C16.4115 26.5096 19.7506 31.4451 24.847 33.4492M16.1485 25.2285L24.847 33.4492M24.847 33.4492L31.3892 34.7885M15.0977 41.6618C14.9862 41.6014 14.8559 41.5856 14.7332 41.6176L5.32656 44.0746C5.09061 44.1363 4.87647 43.9192 4.94124 43.6841L7.45374 34.5642C7.48934 34.4349 7.47156 34.2968 7.40437 34.1808C5.66732 31.1815 4.75364 27.7804 4.75488 24.3189V24.3187C4.75488 13.4389 13.6589 4.58301 24.5855 4.58301C29.8972 4.58301 34.8709 6.64169 38.6149 10.3682C42.3584 14.0944 44.4165 19.0534 44.4165 24.3287C44.4165 35.2083 35.5125 44.0642 24.5857 44.0642H24.5757C21.2555 44.0642 17.9942 43.2307 15.0977 41.6618Z" fill="white" stroke="white" stroke-linejoin="round"/>
</svg>
