<svg width="56" height="56" viewBox="0 0 56 56" fill="none" xmlns="http://www.w3.org/2000/svg">
<circle cx="28" cy="28" r="28" fill="#F3F1EF"/>
<path d="M43.7351 40.6984H39.8375C38.3629 40.6984 37.9194 39.4169 35.2747 36.5787C32.9667 34.1906 31.9916 33.8925 31.4066 33.8925C30.5998 33.8925 30.3781 34.1304 30.3781 35.3259V39.0873C30.3781 40.105 30.0709 40.7013 27.5945 40.7013C25.1911 40.528 22.8605 39.7444 20.7947 38.4151C18.7288 37.0857 16.9868 35.2487 15.7121 33.0554C12.6858 29.0131 10.5801 24.2688 9.5625 19.1998C9.5625 18.5719 9.78423 18.0043 10.8982 18.0043H14.7931C15.7949 18.0043 16.1555 18.4831 16.5482 19.5868C18.4396 25.5614 21.6666 30.7561 22.9756 30.7561C23.4778 30.7561 23.6969 30.5182 23.6969 29.1736V23.0213C23.5313 20.2146 22.1421 19.9767 22.1421 18.9618C22.16 18.6941 22.2743 18.4444 22.4608 18.2657C22.6473 18.0869 22.8914 17.9932 23.1412 18.0043H29.2641C30.1002 18.0043 30.3781 18.4515 30.3781 19.5266V27.8291C30.3781 28.7264 30.7387 29.0245 30.9898 29.0245C31.492 29.0245 31.8794 28.7264 32.7984 27.7402C34.7721 25.157 36.3848 22.279 37.5855 19.1969C37.7082 18.8267 37.9405 18.5097 38.2467 18.2944C38.553 18.0791 38.9166 17.9772 39.2818 18.0043H43.1794C44.3468 18.0043 44.5953 18.6321 44.3468 19.5266C42.9296 22.9337 41.1761 26.1678 39.1162 29.1736C38.6968 29.8617 38.5285 30.22 39.1162 31.0256C39.5036 31.6535 40.8687 32.8776 41.7876 34.0416C43.1231 35.4711 44.232 37.1251 45.0708 38.9382C45.4047 40.1021 44.8464 40.6984 43.7351 40.6984Z" fill="#1C1D21"/>
</svg>
