<svg width="54" height="54" viewBox="0 0 54 54" fill="none" xmlns="http://www.w3.org/2000/svg">
<path fill-rule="evenodd" clip-rule="evenodd" d="M41.5872 44.528L41.5887 44.5241L41.6279 44.4262L48.3752 10.4083V10.2978C48.3752 9.45026 48.062 8.71032 47.3805 8.26649C46.784 7.878 46.0983 7.85034 45.6175 7.88683C45.1089 7.92543 44.6294 8.05236 44.2975 8.15803C44.1267 8.21238 43.9837 8.26476 43.8815 8.30438C43.8302 8.32426 43.7886 8.34113 43.7584 8.3537L43.7287 8.3662L6.10909 23.1238L6.09874 23.1275C6.07842 23.1349 6.05155 23.1449 6.0191 23.1576C5.9544 23.1828 5.86634 23.2188 5.76289 23.2657C5.55975 23.3577 5.2791 23.4998 4.99447 23.6947C4.51105 24.0258 3.59054 24.8095 3.74598 26.052C3.87472 27.0812 4.58415 27.7348 5.06243 28.0732C5.31882 28.2546 5.5641 28.3854 5.74371 28.4709C5.83472 28.5143 5.91202 28.5475 5.96959 28.5709C5.99846 28.5827 6.02259 28.592 6.04127 28.5991L6.06517 28.6081L6.08046 28.6137L12.6622 30.8295C12.64 31.2425 12.681 31.6635 12.7905 32.079L16.0874 44.5854C16.4783 46.0683 17.8198 47.1012 19.3533 47.1001C20.7279 47.0991 21.947 46.2675 22.465 45.0268L27.6122 39.5231L36.4524 46.3007L36.5781 46.3555C37.3813 46.706 38.1317 46.817 38.8178 46.7233C39.5029 46.6297 40.0473 46.3425 40.4563 46.0153C40.8587 45.6933 41.1346 45.3299 41.308 45.0563C41.3961 44.9173 41.4618 44.7952 41.5074 44.7032C41.5302 44.6571 41.5483 44.618 41.5618 44.5875L41.5788 44.5483L41.5848 44.5339L41.5872 44.528ZM16.0539 31.2186C15.979 30.9344 16.0966 30.6343 16.3447 30.4768L38.6693 16.2997C38.6693 16.2997 39.9824 15.5026 39.9354 16.2997C39.9354 16.2997 40.1698 16.4405 39.4662 17.0969C38.7987 17.7203 23.5549 32.4377 22.0124 33.9269C21.9234 34.0129 21.8702 34.1115 21.8389 34.2312L19.3508 43.7251L16.0539 31.2186Z" fill="white"/>
</svg>
