<svg width="85" height="84" viewBox="0 0 85 84" fill="none" xmlns="http://www.w3.org/2000/svg">
<circle cx="42.3436" cy="41.9998" r="41.2498" fill="#1C1D21" stroke="#1C1D21" stroke-width="1.5"/>
<path d="M65.9461 61.0475H60.0998C57.8879 61.0475 57.2227 59.1253 53.2557 54.868C49.7936 51.2858 48.331 50.8386 47.4534 50.8386C46.2433 50.8386 45.9107 51.1955 45.9107 52.9888V58.6307C45.9107 60.1573 45.4499 61.0518 41.7353 61.0518C38.1303 60.7918 34.6345 59.6164 31.5357 57.6224C28.4369 55.6285 25.8239 52.873 23.9118 49.5829C19.3725 43.5195 16.214 36.4031 14.6875 28.7997C14.6875 27.8579 15.0201 27.0064 16.691 27.0064H22.5334C24.036 27.0064 24.577 27.7246 25.166 29.3802C28.003 38.342 32.8436 46.1341 34.8071 46.1341C35.5604 46.1341 35.889 45.7772 35.889 43.7603V34.5319C35.6405 30.322 33.5569 29.965 33.5569 28.4427C33.5836 28.0412 33.7551 27.6667 34.0349 27.3985C34.3146 27.1304 34.6807 26.9898 35.0555 27.0064H44.2397C45.494 27.0064 45.9107 27.6773 45.9107 29.2899V41.7435C45.9107 43.0895 46.4517 43.5367 46.8283 43.5367C47.5816 43.5367 48.1627 43.0895 49.5411 41.6102C52.5018 37.7354 54.9208 33.4185 56.7218 28.7954C56.9059 28.24 57.2542 27.7646 57.7137 27.4416C58.1731 27.1186 58.7184 26.9658 59.2663 27.0064H65.1126C66.8637 27.0064 67.2364 27.9482 66.8637 29.2899C64.7379 34.4005 62.1076 39.2517 59.0179 43.7603C58.3888 44.7924 58.1363 45.33 59.0179 46.5383C59.5989 47.4801 61.6465 49.3163 63.025 51.0622C65.0281 53.2065 66.6916 55.6875 67.9497 58.4071C68.4505 60.153 67.6131 61.0475 65.9461 61.0475Z" fill="#F3F1EF"/>
</svg>
