<svg width="56" height="56" viewBox="0 0 56 56" fill="none" xmlns="http://www.w3.org/2000/svg">
<circle cx="28" cy="28" r="28" fill="#F3F1EF"/>
<path fill-rule="evenodd" clip-rule="evenodd" d="M36.2653 39.6853L36.2664 39.6827L36.294 39.6175L41.042 16.9389V16.8652C41.042 16.3002 40.8217 15.8069 40.3421 15.511C39.9223 15.252 39.4398 15.2336 39.1014 15.2579C38.7436 15.2836 38.4061 15.3682 38.1725 15.4387C38.0524 15.4749 37.9518 15.5098 37.8798 15.5363C37.8437 15.5495 37.8145 15.5608 37.7932 15.5691L37.7723 15.5775L11.2992 25.4159L11.292 25.4183C11.2777 25.4233 11.2588 25.43 11.2359 25.4384C11.1904 25.4552 11.1284 25.4792 11.0556 25.5105C10.9127 25.5718 10.7152 25.6665 10.5149 25.7965C10.1747 26.0172 9.52693 26.5397 9.63631 27.368C9.72691 28.0541 10.2261 28.4899 10.5627 28.7155C10.7431 28.8364 10.9157 28.9236 11.0421 28.9806C11.1062 29.0095 11.1606 29.0316 11.2011 29.0473C11.2214 29.0551 11.2384 29.0614 11.2515 29.0661L11.2683 29.072L11.2791 29.0758L15.9107 30.553C15.8951 30.8283 15.9239 31.109 16.001 31.386L18.321 39.7236C18.5961 40.7122 19.5401 41.4008 20.6193 41.4001C21.5866 41.3994 22.4445 40.845 22.8089 40.0179L26.4311 36.3488L32.652 40.8671L32.7404 40.9037C33.3056 41.1373 33.8337 41.2114 34.3165 41.1489C34.7986 41.0865 35.1817 40.895 35.4695 40.6768C35.7527 40.4622 35.9468 40.2199 36.0688 40.0375C36.1308 39.9449 36.1771 39.8634 36.2091 39.8021C36.2252 39.7714 36.238 39.7453 36.2475 39.725L36.2594 39.6989L36.2636 39.6892L36.2653 39.6853ZM18.2974 30.8124C18.2447 30.6229 18.3275 30.4229 18.5021 30.3178L34.212 20.8665C34.212 20.8665 35.136 20.335 35.103 20.8665C35.103 20.8665 35.2679 20.9603 34.7727 21.3979C34.3031 21.8135 23.5759 31.6251 22.4905 32.6179C22.4278 32.6753 22.3904 32.741 22.3683 32.8208L20.6175 39.15L18.2974 30.8124Z" fill="#1C1D21"/>
</svg>
