<svg width="224" height="19" viewBox="0 0 224 19" fill="none" xmlns="http://www.w3.org/2000/svg">
<g clip-path="url(#clip0_187_1057)">
<path d="M8.48359 18.162L16.3905 0.254765H16.9938V18.6971H16.5205L16.5472 0.889818L8.77359 18.6971H8.19691L0.44668 0.889818L0.473347 18.6971H0V0.254765H0.603351L8.48359 18.162ZM30.4442 19.0001C29.0509 19.0001 27.7642 18.7712 26.5841 18.2877C25.4008 17.8041 24.3774 17.1433 23.5374 16.3052C22.6707 15.467 22.014 14.4774 21.5406 13.3072C21.0406 12.1402 20.804 10.8701 20.804 9.49688C20.804 8.12361 21.0406 6.8793 21.514 5.71235C21.9607 4.56797 22.6173 3.55253 23.4574 2.71439C24.2974 1.87624 25.3241 1.18961 26.5041 0.706072C27.6875 0.222529 29.0009 -0.00634766 30.4442 -0.00634766C31.8876 -0.00634766 33.1777 0.222529 34.3577 0.706072C35.5411 1.18961 36.5378 1.82467 37.4044 2.66281C38.2445 3.50095 38.9012 4.51639 39.4012 5.66077C39.8745 6.82772 40.1112 8.09783 40.1112 9.49688C40.1112 10.8959 39.8745 12.1145 39.4278 13.2556C38.9545 14.4226 38.2978 15.4412 37.4578 16.2794C36.5911 17.1175 35.5911 17.7783 34.411 18.2619C33.2277 18.768 31.891 18.9969 30.4442 18.9969V19.0001ZM30.4442 18.6197C31.7843 18.6197 33.0443 18.3908 34.1744 17.9331C35.3044 17.4753 36.2744 16.8403 37.0911 16.0279C37.9045 15.2414 38.5345 14.2743 38.9812 13.1589C39.4278 12.0403 39.6645 10.8218 39.6645 9.5001C39.6645 8.17842 39.4545 6.98568 39.0078 5.86708C38.5611 4.77428 37.9578 3.81042 37.1411 2.99484C36.3277 2.18249 35.3544 1.54744 34.2244 1.06389C33.0943 0.60614 31.8343 0.377263 30.4409 0.377263C29.0475 0.377263 27.8675 0.60614 26.7375 1.06389C25.6074 1.52165 24.6607 2.1567 23.8474 2.96905C23.034 3.7814 22.3773 4.74849 21.9307 5.83807C21.484 6.95667 21.2473 8.17519 21.2473 9.49688C21.2473 10.8186 21.484 11.9855 21.9307 13.0783C22.3773 14.1969 22.9807 15.1608 23.794 15.9731C24.6074 16.8113 25.5808 17.4463 26.7108 17.9041C27.8408 18.3876 29.0742 18.6165 30.4409 18.6165L30.4442 18.6197ZM57.5617 18.2393L57.535 0.254765H58.0084V18.6971H57.3517L44.1146 0.712519L44.1413 18.6971H43.668V0.254765H44.298L57.5617 18.2393ZM75.1656 0.254765V0.635152L61.8485 18.3135H75.7456V18.6939H61.3252V18.3135L74.6389 0.635152H61.5318V0.254765H75.1656ZM78.749 18.6971H78.1957L87.3659 0.254765L96.5062 18.6971H95.9795L92.9594 12.6012H81.7424L78.749 18.6971ZM87.3659 1.21863L81.9558 12.2176H92.7528L87.3693 1.21863H87.3659ZM118.78 18.6971H110.637V0.254765H118.78C119.594 0.254765 120.384 0.332132 121.09 0.509431C121.797 0.68673 122.404 0.941396 122.93 1.32178C123.457 1.70217 123.877 2.2115 124.164 2.82076C124.454 3.43003 124.61 4.16824 124.61 5.03217C124.61 7.46922 123.35 8.94564 120.8 9.47753V9.50332C122.167 9.68062 123.244 10.1642 124.004 10.8991C124.767 11.6599 125.16 12.7269 125.16 14.0744C125.16 15.0157 124.977 15.7765 124.634 16.36C124.29 16.9692 123.82 17.4528 123.214 17.7816C122.61 18.1104 121.927 18.365 121.164 18.494C120.404 18.6197 119.587 18.6971 118.774 18.6971H118.78ZM118.78 0.609363L111.083 0.635152V9.29701H118.78C119.544 9.29701 120.25 9.21964 120.907 9.09392C121.564 8.9682 122.114 8.71354 122.614 8.3815C123.114 8.0527 123.48 7.62073 123.77 7.08561C124.06 6.55049 124.19 5.86708 124.19 5.05473C124.19 4.24238 124.06 3.58154 123.77 2.99806C123.48 2.44038 123.114 1.98262 122.614 1.6248C122.114 1.2702 121.564 1.01554 120.907 0.83824C120.25 0.68673 119.54 0.609363 118.78 0.609363ZM118.78 9.70319H111.083V18.3135H118.78C119.544 18.3135 120.277 18.2619 120.987 18.1362C121.697 18.0104 122.354 17.8074 122.904 17.4753C123.454 17.1433 123.9 16.7146 124.244 16.1794C124.584 15.6443 124.744 14.9351 124.744 14.0712C124.744 13.2073 124.587 12.4948 124.244 11.9114C123.904 11.3537 123.48 10.8959 122.93 10.5639C122.377 10.2319 121.724 10.0062 121.014 9.87726C120.304 9.74832 119.544 9.69996 118.78 9.69996V9.70319ZM137.014 9.70319L143.134 18.6971H142.581L136.434 9.70319H129.474V18.6971H129.001V0.254765H136.541C137.381 0.254765 138.194 0.332132 138.984 0.457853C139.744 0.609363 140.454 0.864029 141.058 1.21863C141.661 1.57322 142.134 2.05677 142.501 2.66603C142.868 3.27529 143.051 4.06186 143.051 5.00315C143.051 5.89287 142.894 6.60207 142.551 7.18877C142.208 7.77224 141.788 8.25578 141.238 8.61038C140.684 8.99077 140.031 9.24543 139.294 9.39694C138.557 9.57424 137.797 9.6774 137.007 9.70319H137.014ZM136.541 0.635152H129.474V9.29701H136.541C137.304 9.29701 138.064 9.24543 138.774 9.11971C139.484 8.99399 140.141 8.7909 140.718 8.45887C141.268 8.12684 141.741 7.6981 142.084 7.13719C142.424 6.5795 142.584 5.86708 142.584 5.00315C142.584 4.13922 142.428 3.4268 142.084 2.84333C141.741 2.28564 141.271 1.82789 140.718 1.49586C140.164 1.16383 139.511 0.938172 138.801 0.809227C138.064 0.680283 137.304 0.631929 136.541 0.631929V0.635152ZM146.908 18.6971V0.254765H147.381V18.6971H146.908ZM150.758 18.6971H150.208L159.375 0.254765L168.515 18.6971H167.988L164.968 12.6012H153.751L150.758 18.6971ZM159.375 1.21863L153.965 12.2176H164.762L159.378 1.21863H159.375ZM185.546 18.2393L185.519 0.254765H185.992V18.6971H185.336L172.095 0.712519L172.122 18.6971H171.648V0.254765H172.278L185.542 18.2393H185.546ZM202.959 0.254765V0.635152L189.642 18.3135H203.539V18.6939H189.119V18.3135L202.433 0.635152H189.326V0.254765H202.959ZM206.243 18.6971H205.693L214.86 0.254765L224 18.6971H223.473L220.453 12.6012H209.236L206.243 18.6971ZM214.86 1.21863L209.45 12.2176H220.247L214.863 1.21863H214.86Z" fill="url(#paint0_linear_187_1057)"/>
</g>
<defs>
<linearGradient id="paint0_linear_187_1057" x1="112" y1="9.95786e-05" x2="112" y2="19.0001" gradientUnits="userSpaceOnUse">
<stop stop-color="white"/>
<stop offset="0.14" stop-color="#F8F8F8"/>
<stop offset="0.33" stop-color="#E5E6E7"/>
<stop offset="0.56" stop-color="#C6C8CB"/>
<stop offset="0.82" stop-color="#9C9FA4"/>
<stop offset="0.97" stop-color="#7F8389"/>
</linearGradient>
<clipPath id="clip0_187_1057">
<rect width="224" height="19" fill="white"/>
</clipPath>
</defs>
</svg>
