<svg width="317" height="28" viewBox="0 0 317 28" fill="none" xmlns="http://www.w3.org/2000/svg">
<g clip-path="url(#clip0_383_42)">
<path d="M22.4864 0.484324H23.9283V27.5914H22.5612L22.5962 3.62234L12.5878 27.5914H11.2956L1.32713 3.62234L1.36206 27.5914H0V0.484324H1.44188L11.9641 25.4977L22.4864 0.484324ZM28.6281 14.0757C28.6281 6.12468 34.0564 0.151351 42.1389 0.151351C50.2215 0.151351 55.7246 5.9027 55.7246 14.0757C55.7246 22.2486 50.2614 28 42.1389 28C34.0165 28 28.6231 22.178 28.6231 14.0757H28.6281ZM54.3975 14.0757C54.3975 6.87135 49.523 1.41766 42.1389 1.41766C34.7549 1.41766 29.9553 6.79568 29.9553 14.0757C29.9553 21.3557 34.8647 26.7337 42.1389 26.7337C49.4132 26.7337 54.3975 21.396 54.3975 14.0757ZM79.2188 0.484324H80.5859V27.5914H79.144L61.6069 2.68901L61.6418 27.5914H60.2748V0.484324H61.6767L79.2537 25.3867L79.2188 0.484324ZM105.996 1.52865L88.1246 26.32H106.769V27.5914H86.3534V26.547L104.19 1.75568H86.6528V0.484324H106.001V1.52865H105.996ZM136.136 27.5914H134.624L130.488 18.8533H115.61L111.514 27.5914H109.962L123.069 0L136.141 27.5914H136.136ZM123.069 3.09766L116.239 17.582H129.864L123.069 3.09766ZM176.354 20.609C176.354 26.1737 171.958 27.5914 167.269 27.5914H155.783V0.484324H167.269C171.993 0.484324 175.616 2.46198 175.616 7.68865C175.616 10.862 174.248 12.9557 171.519 14C174.583 14.8577 176.354 17.0623 176.354 20.609ZM157.12 1.75568V13.4047H167.274C171.15 13.4047 174.323 12.098 174.323 7.72901C174.323 3.36 171.15 1.79099 167.274 1.71532L157.12 1.75063V1.75568ZM157.12 26.32H167.274C171.185 26.32 175.067 25.2757 175.067 20.609C175.067 15.9423 171.265 14.7114 167.274 14.7114H157.12V26.325V26.32ZM202.093 27.5914H200.432L192.05 14.7114H183.114V27.5914H181.747V0.484324H192.419C197.219 0.484324 201.649 2.01297 201.649 7.65333C201.649 12.6177 198.107 14.4086 193.746 14.7114L202.088 27.5914H202.093ZM183.114 1.75568V13.4047H192.419C196.331 13.4047 200.322 12.32 200.322 7.65333C200.322 2.98667 196.336 1.75568 192.419 1.75568H183.114ZM206.973 0.484324H208.34V27.5914H206.973V0.484324ZM238.824 27.5914H237.312L233.176 18.8533H218.298L214.202 27.5914H212.65L225.752 0L238.824 27.5914ZM225.752 3.09766L218.922 17.582H232.548L225.752 3.09766ZM262.173 0.484324H263.54V27.5914H262.099L244.562 2.68901L244.596 27.5914H243.229V0.484324H244.631L262.208 25.3867L262.173 0.484324ZM287.569 1.52865L269.697 26.32H288.342V27.5914H267.926V26.547L285.758 1.75568H268.22V0.484324H287.569V1.52865ZM317 27.5914H315.488L311.352 18.8533H296.474L292.378 27.5914H290.827L303.928 0L317 27.5914ZM303.928 3.09766L297.098 17.582H310.724L303.928 3.09766Z" fill="url(#paint0_linear_383_42)"/>
</g>
<defs>
<linearGradient id="paint0_linear_383_42" x1="158.502" y1="0" x2="158.502" y2="28" gradientUnits="userSpaceOnUse">
<stop stop-color="#AAAAAA"/>
<stop offset="0.01" stop-color="#B7B7B7"/>
<stop offset="0.05" stop-color="#D1D1D1"/>
<stop offset="0.09" stop-color="#E5E5E5"/>
<stop offset="0.14" stop-color="#F4F4F4"/>
<stop offset="0.19" stop-color="#FCFCFC"/>
<stop offset="0.28" stop-color="white"/>
<stop offset="0.48" stop-color="#E3E3E3"/>
<stop offset="0.82" stop-color="#B9B9B9"/>
<stop offset="1" stop-color="#AAAAAA"/>
</linearGradient>
<clipPath id="clip0_383_42">
<rect width="317" height="28" fill="white"/>
</clipPath>
</defs>
</svg>
