<svg width="533" height="47" viewBox="0 0 533 47" fill="none" xmlns="http://www.w3.org/2000/svg">
<g clip-path="url(#clip0_187_1043)">
<path d="M20.1864 44.927L39.0006 0.630286H40.4362V46.2508H39.3099L39.3734 2.20121L20.8765 46.2508H19.5043L1.06286 2.20121L1.12631 46.2508H0V0.630286H1.43565L20.1864 44.927ZM72.441 47.0003C69.1255 47.0003 66.0638 46.4342 63.256 45.238C60.4402 44.0419 58.0051 42.4072 56.0063 40.3339C53.9441 38.2606 52.3815 35.8125 51.2552 32.9179C50.0654 30.0312 49.5023 26.8894 49.5023 23.4923C49.5023 20.0953 50.0654 17.0173 51.1917 14.1306C52.2546 11.2998 53.8172 8.7879 55.816 6.71461C57.8148 4.64131 60.2578 2.94281 63.0656 1.74668C65.8814 0.550544 69.0065 -0.015625 72.441 -0.015625C75.8754 -0.015625 78.945 0.550544 81.7529 1.74668C84.5687 2.94281 86.9403 4.51373 89.0025 6.58702C91.0014 8.66032 92.5639 11.1722 93.7537 14.003C94.88 16.8897 95.4432 20.0315 95.4432 23.4923C95.4432 26.9532 94.88 29.9674 93.8171 32.7903C92.6908 35.6769 91.1283 38.1968 89.1295 40.2701C87.0672 42.3434 84.6877 43.9781 81.8798 45.1742C79.064 46.4262 75.8834 46.9924 72.441 46.9924V47.0003ZM72.441 46.0594C75.6296 46.0594 78.6278 45.4932 81.3166 44.3609C84.0055 43.2285 86.3137 41.6576 88.257 39.6481C90.1923 37.7024 91.6914 35.3101 92.7543 32.5511C93.8171 29.784 94.3803 26.7698 94.3803 23.5003C94.3803 20.2309 93.8806 17.2804 92.8177 14.5134C91.7549 11.8101 90.3192 9.42584 88.3759 7.40837C86.4406 5.39887 84.1245 3.82794 81.4356 2.63181C78.7467 1.49948 75.7485 0.933306 72.4331 0.933306C69.1176 0.933306 66.3097 1.49948 63.6208 2.63181C60.932 3.76415 58.6793 5.33507 56.744 7.34457C54.8086 9.35407 53.2461 11.7463 52.1832 14.4416C51.1203 17.2087 50.5572 20.2229 50.5572 23.4923C50.5572 26.7618 51.1203 29.6484 52.1832 32.3517C53.2461 35.1188 54.6817 37.503 56.6171 39.5125C58.5524 41.5858 60.8685 43.1568 63.5574 44.2891C66.2463 45.4852 69.181 46.0514 72.4331 46.0514L72.441 46.0594ZM136.966 45.1184L136.903 0.630286H138.029V46.2508H136.466L104.969 1.76262L105.033 46.2508H103.906V0.630286H105.405L136.966 45.1184ZM178.854 0.630286V1.57124L147.166 45.3018H180.234V46.2428H145.921V45.3018L177.601 1.57124H146.413V0.630286H178.854ZM187.38 46.2508H186.064L207.884 0.630286L229.633 46.2508H228.38L221.194 31.1715H194.503L187.38 46.2508ZM207.884 3.01458L195.011 30.2226H220.702L207.892 3.01458H207.884ZM282.633 46.2508H263.256V0.630286H282.633C284.569 0.630286 286.448 0.821667 288.13 1.26025C289.812 1.69883 291.255 2.32879 292.508 3.26975C293.762 4.21071 294.761 5.47063 295.443 6.97776C296.133 8.48489 296.506 10.311 296.506 12.4481C296.506 18.4766 293.508 22.1288 287.44 23.4445V23.5083C290.692 23.9469 293.254 25.143 295.062 26.9611C296.879 28.843 297.815 31.4825 297.815 34.8157C297.815 37.1442 297.378 39.0261 296.561 40.4694C295.745 41.9766 294.626 43.1727 293.183 43.9861C291.747 44.7994 290.121 45.4294 288.304 45.7484C286.496 46.0594 284.553 46.2508 282.617 46.2508H282.633ZM282.633 1.50745L264.319 1.57124V22.9979H282.633C284.45 22.9979 286.131 22.8066 287.694 22.4956C289.256 22.1846 290.565 21.5546 291.755 20.7333C292.945 19.9199 293.817 18.8514 294.507 17.5276C295.197 16.2039 295.507 14.5134 295.507 12.5039C295.507 10.4944 295.197 8.85967 294.507 7.41634C293.817 6.0368 292.945 4.90446 291.755 4.01933C290.565 3.14216 289.256 2.5122 287.694 2.07362C286.131 1.69883 284.442 1.50745 282.633 1.50745ZM282.633 24.0027H264.319V45.3018H282.633C284.45 45.3018 286.195 45.1742 287.884 44.8632C289.574 44.5522 291.136 44.0499 292.445 43.2285C293.754 42.4072 294.816 41.3466 295.633 40.0229C296.442 38.6992 296.823 36.9448 296.823 34.8078C296.823 32.6707 296.45 30.9084 295.633 29.465C294.824 28.0855 293.817 26.9532 292.508 26.1318C291.192 25.3105 289.637 24.7523 287.948 24.4333C286.258 24.1143 284.45 23.9947 282.633 23.9947V24.0027ZM326.02 24.0027L340.583 46.2508H339.266L324.64 24.0027H308.078V46.2508H306.952V0.630286H324.894C326.893 0.630286 328.828 0.821667 330.708 1.13266C332.516 1.50745 334.206 2.13741 335.641 3.01458C337.077 3.89174 338.203 5.08787 339.076 6.595C339.948 8.10212 340.385 10.0478 340.385 12.3763C340.385 14.5772 340.012 16.3315 339.195 17.7828C338.378 19.2261 337.378 20.4223 336.07 21.2994C334.753 22.2404 333.198 22.8704 331.445 23.2451C329.693 23.6837 327.884 23.9389 326.004 24.0027H326.02ZM324.894 1.57124H308.078V22.9979H324.894C326.71 22.9979 328.519 22.8704 330.208 22.5594C331.898 22.2484 333.46 21.746 334.832 20.9247C336.141 20.1033 337.267 19.0427 338.084 17.6552C338.893 16.2757 339.274 14.5134 339.274 12.3763C339.274 10.2392 338.901 8.47691 338.084 7.03358C337.267 5.65404 336.149 4.5217 334.832 3.70036C333.516 2.87901 331.961 2.32082 330.272 2.00185C328.519 1.68288 326.71 1.56327 324.894 1.56327V1.57124ZM349.562 46.2508V0.630286H350.688V46.2508H349.562ZM358.723 46.2508H357.414L379.227 0.630286L400.975 46.2508H399.722L392.536 31.1715H365.846L358.723 46.2508ZM379.227 3.01458L366.353 30.2226H392.044L379.234 3.01458H379.227ZM441.499 45.1184L441.435 0.630286H442.562V46.2508H440.999L409.494 1.76262L409.558 46.2508H408.431V0.630286H409.93L441.491 45.1184H441.499ZM482.935 0.630286V1.57124L451.247 45.3018H484.315V46.2428H450.002V45.3018L481.681 1.57124H450.494V0.630286H482.935ZM490.747 46.2508H489.439L511.251 0.630286L533 46.2508H531.747L524.561 31.1715H497.87L490.747 46.2508ZM511.251 3.01458L498.378 30.2226H524.069L511.259 3.01458H511.251Z" fill="url(#paint0_linear_187_1043)"/>
</g>
<defs>
<linearGradient id="paint0_linear_187_1043" x1="266.5" y1="0.000323424" x2="266.5" y2="47.0003" gradientUnits="userSpaceOnUse">
<stop stop-color="white"/>
<stop offset="0.14" stop-color="#F8F8F8"/>
<stop offset="0.33" stop-color="#E5E6E7"/>
<stop offset="0.56" stop-color="#C6C8CB"/>
<stop offset="0.82" stop-color="#9C9FA4"/>
<stop offset="0.97" stop-color="#7F8389"/>
</linearGradient>
<clipPath id="clip0_187_1043">
<rect width="533" height="47" fill="white"/>
</clipPath>
</defs>
</svg>
