<svg width="446" height="39" viewBox="0 0 446 39" fill="none" xmlns="http://www.w3.org/2000/svg">
<g clip-path="url(#clip0_387_51)">
<path d="M31.637 0.674595H33.6657V38.4308H31.7423L31.7915 5.04541L17.7103 38.4308H15.8922L1.8672 5.04541L1.91633 38.4308H0V0.674595H2.02864L16.8328 35.5146L31.637 0.674595ZM40.2781 19.6054C40.2781 8.53081 47.9153 0.210811 59.287 0.210811C70.6586 0.210811 78.4012 8.22162 78.4012 19.6054C78.4012 30.9892 70.7148 39 59.287 39C47.8592 39 40.2711 30.8908 40.2711 19.6054H40.2781ZM76.534 19.6054C76.534 9.57081 69.6759 1.97459 59.287 1.97459C48.8981 1.97459 42.1453 9.4654 42.1453 19.6054C42.1453 29.7454 49.0525 37.2362 59.287 37.2362C69.5214 37.2362 76.534 29.8016 76.534 19.6054ZM111.456 0.674595H113.379V38.4308H111.351L86.6772 3.74541L86.7263 38.4308H84.803V0.674595H86.7755L111.505 35.36L111.456 0.674595ZM149.13 2.12919L123.986 36.66H150.218V38.4308H121.494V36.9762L146.589 2.44541H121.915V0.674595H149.137V2.12919H149.13ZM191.535 38.4308H189.408L183.589 26.26H162.657L156.894 38.4308H154.71L173.151 0L191.542 38.4308H191.535ZM173.151 4.31459L163.541 24.4892H182.711L173.151 4.31459ZM248.119 28.7054C248.119 36.4562 241.935 38.4308 235.337 38.4308H219.178V0.674595H235.337C241.984 0.674595 247.08 3.42919 247.08 10.7092C247.08 15.1292 245.157 18.0454 241.317 19.5C245.627 20.6946 248.119 23.7654 248.119 28.7054ZM221.059 2.44541V18.6708H235.344C240.798 18.6708 245.262 16.8508 245.262 10.7654C245.262 4.68 240.798 2.49459 235.344 2.38919L221.059 2.43838V2.44541ZM221.059 36.66H235.344C240.847 36.66 246.308 35.2054 246.308 28.7054C246.308 22.2054 240.959 20.4908 235.344 20.4908H221.059V36.667V36.66ZM284.333 38.4308H281.996L270.203 20.4908H257.631V38.4308H255.708V0.674595H270.722C277.475 0.674595 283.708 2.80378 283.708 10.66C283.708 17.5746 278.725 20.0692 272.589 20.4908L284.326 38.4308H284.333ZM257.631 2.44541V18.6708H270.722C276.226 18.6708 281.841 17.16 281.841 10.66C281.841 4.16 276.233 2.44541 270.722 2.44541H257.631ZM291.198 0.674595H293.122V38.4308H291.198V0.674595ZM336.011 38.4308H333.884L328.065 26.26H307.133L301.37 38.4308H299.186L317.62 0L336.011 38.4308ZM317.62 4.31459L308.01 24.4892H327.18L317.62 4.31459ZM368.862 0.674595H370.786V38.4308H368.757L344.083 3.74541L344.133 38.4308H342.209V0.674595H344.182L368.911 35.36L368.862 0.674595ZM404.592 2.12919L379.448 36.66H405.68V38.4308H376.956V36.9762L402.044 2.44541H377.37V0.674595H404.592V2.12919ZM446 38.4308H443.873L438.054 26.26H417.122L411.359 38.4308H409.176L427.609 0L446 38.4308ZM427.609 4.31459L417.999 24.4892H437.169L427.609 4.31459Z" fill="url(#paint0_linear_387_51)"/>
</g>
<defs>
<linearGradient id="paint0_linear_387_51" x1="223.004" y1="0" x2="223.004" y2="39" gradientUnits="userSpaceOnUse">
<stop stop-color="#AAAAAA"/>
<stop offset="0.01" stop-color="#B7B7B7"/>
<stop offset="0.05" stop-color="#D1D1D1"/>
<stop offset="0.09" stop-color="#E5E5E5"/>
<stop offset="0.14" stop-color="#F4F4F4"/>
<stop offset="0.19" stop-color="#FCFCFC"/>
<stop offset="0.28" stop-color="white"/>
<stop offset="0.48" stop-color="#E3E3E3"/>
<stop offset="0.82" stop-color="#B9B9B9"/>
<stop offset="1" stop-color="#AAAAAA"/>
</linearGradient>
<clipPath id="clip0_387_51">
<rect width="446" height="39" fill="white"/>
</clipPath>
</defs>
</svg>
