<svg width="133" height="14" viewBox="0 0 133 14" fill="none" xmlns="http://www.w3.org/2000/svg">
<g clip-path="url(#clip0_391_771)">
<path d="M95.4985 13.6022V0.541208C98.2128 0.541208 100.883 0.310404 103.482 0.604442C106.22 0.914288 107.713 2.82079 108.055 5.23001C108.266 6.70968 108.154 8.31266 107.754 9.75756C107.139 11.9739 105.355 13.3651 102.868 13.5579C100.459 13.7476 98.0228 13.599 95.4951 13.599L95.4985 13.6022ZM98.7048 11.0981C100.7 10.959 102.763 11.6894 104.228 9.84292C105.256 8.54663 105.25 5.46397 104.174 4.18348C102.695 2.41926 100.666 3.00417 98.7048 3.00101V11.095V11.0981Z" fill="#E6E6E6" fill-opacity="0.36"/>
<path d="M30.6748 13.5899V0.494141H41.3487V2.88122H34.0439V5.66984H40.6905V7.89568H34.0507V11.0574H41.5218V13.5899H30.6782H30.6748Z" fill="#E6E6E6" fill-opacity="0.36"/>
<path d="M80.373 13.5697V0.496094H91.0707V2.88318H83.6879V5.69076H90.4193V7.91028H83.6845V11.072H91.1963V13.5666H80.373V13.5697Z" fill="#E6E6E6" fill-opacity="0.36"/>
<path d="M0 9.23444H2.89411C3.93911 11.3559 5.38107 12.061 7.47446 11.4792C8.23446 11.2674 8.95036 10.9386 8.99446 10.066C9.03518 9.24709 8.38036 8.88033 7.69161 8.66534C6.12411 8.17527 4.48875 7.84646 2.95179 7.29316C0.909286 6.55016 0.125536 5.01674 0.6175 3.10707C0.922857 1.9246 1.75411 1.1152 2.90768 0.640947C5.10286 -0.260137 7.33536 -0.203227 9.47964 0.780061C10.9318 1.44718 11.6511 2.59171 11.6545 4.24212H8.73661C8.18018 3.01222 7.17589 2.18702 5.48625 2.39569C4.6075 2.50319 3.81696 2.80039 3.70161 3.71728C3.58286 4.64366 4.40732 4.90924 5.15714 5.11475C6.37518 5.44989 7.62036 5.70283 8.84179 6.03797C10.9691 6.61972 12.1362 7.86543 12.2075 9.5601C12.2821 11.4065 11.1082 12.9178 9.01143 13.5628C6.99946 14.1825 4.96375 14.1572 2.9925 13.4237C1.06536 12.7028 0.0407143 11.3686 0 9.23444Z" fill="#E6E6E6" fill-opacity="0.36"/>
<path d="M118.862 13.6023C120.725 9.07796 122.503 4.75275 124.277 0.443359H127.667C129.431 4.78121 131.185 9.10009 133 13.5676H129.699C129.339 12.7107 128.946 11.778 128.525 10.7821H123.29C122.91 11.6832 122.513 12.6222 122.099 13.5992H118.862V13.6023ZM126.12 4.20578C126.008 4.1963 125.896 4.18365 125.78 4.17416C125.244 5.56847 124.708 6.96278 124.142 8.44562H127.66C127.124 6.96278 126.622 5.58428 126.12 4.20578Z" fill="#E6E6E6" fill-opacity="0.36"/>
<path d="M75.5113 0.476562V13.566H72.6036V5.30131C72.4882 5.27602 72.3763 5.25073 72.2609 5.22543C71.2057 7.97611 70.1506 10.7268 69.0648 13.5628H66.4795C68.0029 9.14278 69.4822 4.84603 70.9886 0.476562H75.5079H75.5113Z" fill="#E6E6E6" fill-opacity="0.36"/>
<path d="M56.4501 0.470703V2.91786H52.3244V13.5348H49.0333V2.96212H44.7617V0.470703H56.4501Z" fill="#E6E6E6" fill-opacity="0.36"/>
<path d="M65.5156 11.063C64.7794 9.11535 64.0397 7.16774 63.3035 5.22014L63.0015 5.25175V13.5733H60.1074V0.490234H64.586C65.3596 2.59909 66.2247 4.79331 66.9372 7.02863C67.1001 7.54398 66.7676 8.2111 66.5946 8.79286C66.3774 9.52953 66.0958 10.2472 65.8413 10.9744C65.7328 11.0029 65.6276 11.0313 65.519 11.063H65.5156Z" fill="#E6E6E6" fill-opacity="0.36"/>
<path d="M22.576 13.593H19.3799C20.9338 9.13813 22.4436 4.80344 23.9535 0.46875H27.3293C25.7177 4.91726 24.157 9.23298 22.576 13.593Z" fill="#E6E6E6" fill-opacity="0.36"/>
<path d="M115.425 13.586H112.378V0.490234H115.425V13.586Z" fill="#E6E6E6" fill-opacity="0.36"/>
<path d="M14.2563 0.445312H17.5949C18.3583 2.63321 19.159 4.8464 19.8817 7.07855C19.9936 7.42318 19.807 7.87214 19.6849 8.25154C19.3219 9.37079 18.9215 10.4805 18.2361 11.6662C16.9367 8.00177 15.6338 4.3342 14.2529 0.445312H14.2563Z" fill="#E6E6E6" fill-opacity="0.36"/>
</g>
<defs>
<clipPath id="clip0_391_771">
<rect width="133" height="14" fill="white"/>
</clipPath>
</defs>
</svg>
