<svg width="227" height="59" viewBox="0 0 227 59" fill="none" xmlns="http://www.w3.org/2000/svg">
<path d="M77.0266 45.9706C79.3196 47.1009 82.0647 47.6661 85.2619 47.6661C88.6206 47.6661 91.511 47.0363 93.9331 45.7768C96.3552 44.5173 98.2607 42.838 99.6493 40.7388C101.038 38.6396 101.894 36.3305 102.217 33.8115H95.2895C94.902 36.169 93.7878 38.0098 91.947 39.3339C90.1384 40.6257 87.9101 41.2716 85.2619 41.2716C83.4534 41.2716 81.8547 40.9648 80.4661 40.3512C79.1097 39.7376 77.9632 38.8818 77.0266 37.7838C76.0901 36.6534 75.3796 35.3455 74.8951 33.8599C74.443 32.3743 74.217 30.7596 74.217 29.0157C74.217 27.2071 74.443 25.5601 74.8951 24.0745C75.3796 22.5889 76.0739 21.2971 76.9782 20.1991C77.8824 19.1011 79.0128 18.2614 80.3692 17.6801C81.7256 17.0665 83.2757 16.7597 85.0197 16.7597C86.7313 16.7597 88.2653 17.0503 89.6217 17.6316C90.9781 18.1806 92.0923 19.0203 92.9643 20.1507C93.8685 21.2487 94.4498 22.6051 94.7082 24.2198H101.635C101.345 21.4425 100.489 19.0203 99.068 16.9534C97.647 14.8543 95.7416 13.2395 93.3518 12.1092C90.9943 10.9465 88.2169 10.3652 85.0197 10.3652C81.9516 10.3652 79.2873 10.8981 77.0266 11.9638C74.7983 12.9973 72.9574 14.386 71.5042 16.1299C70.0509 17.8738 68.969 19.8116 68.2585 21.943C67.5803 24.0745 67.2412 26.2383 67.2412 28.4343V29.5001C67.2412 31.4701 67.5803 33.5208 68.2585 35.6523C68.9367 37.7838 69.9863 39.7538 71.4073 41.5623C72.8606 43.3708 74.7337 44.8403 77.0266 45.9706Z" fill="#E6E6E6"/>
<path fill-rule="evenodd" clip-rule="evenodd" d="M120.181 43.5484C120.514 42.984 120.788 42.3612 121.004 41.6799V46.7457H126.333V30.4205C126.333 27.9661 125.865 25.9799 124.928 24.462C124.024 22.9442 122.667 21.83 120.859 21.1195C119.083 20.409 116.838 20.0538 114.125 20.0538C113.253 20.0538 112.317 20.0699 111.316 20.1022C110.347 20.1022 109.394 20.1345 108.458 20.1991C107.521 20.2637 106.681 20.3283 105.939 20.3929V26.1091C106.843 26.0445 107.86 25.9961 108.99 25.9638C110.153 25.8992 111.3 25.8507 112.43 25.8184C113.56 25.7861 114.529 25.77 115.336 25.77C116.887 25.77 118.033 26.1414 118.776 26.8842C119.519 27.627 119.89 28.7573 119.89 30.2752V30.5174H114.513C112.188 30.5174 110.153 30.8242 108.409 31.4378C106.697 32.0514 105.357 32.9718 104.388 34.199C103.452 35.4262 102.984 37.0087 102.984 38.9464C102.984 40.7226 103.371 42.2405 104.146 43.5C104.954 44.7595 106.068 45.7284 107.489 46.4066C108.942 47.0848 110.621 47.4239 112.527 47.4239C114.368 47.4239 115.918 47.1009 117.177 46.455C118.469 45.7768 119.47 44.808 120.181 43.5484ZM118.97 40.3997C119.519 39.56 119.825 38.4297 119.89 37.0087V34.5381H114.416C112.866 34.5381 111.671 34.9257 110.831 35.7007C110.024 36.4435 109.62 37.4124 109.62 38.6073C109.62 39.8022 110.024 40.7711 110.831 41.5139C111.671 42.2566 112.866 42.628 114.416 42.628C115.353 42.628 116.208 42.4666 116.983 42.1436C117.791 41.7884 118.453 41.2071 118.97 40.3997Z" fill="#E6E6E6"/>
<path d="M142.798 47.6661C140.505 47.6661 138.519 47.2785 136.84 46.5034C135.193 45.7284 133.804 44.6949 132.674 43.4031C131.576 42.1113 130.752 40.658 130.203 39.0433C129.654 37.4285 129.38 35.7815 129.38 34.1021V33.1817C129.38 31.4055 129.654 29.71 130.203 28.0952C130.784 26.4482 131.64 24.9949 132.77 23.7354C133.901 22.4436 135.29 21.4263 136.937 20.6835C138.616 19.9084 140.554 19.5209 142.75 19.5209C145.043 19.5209 147.093 19.973 148.902 20.8773C150.71 21.7493 152.148 22.9765 153.213 24.5589C154.311 26.1414 154.925 27.9822 155.054 30.0814H148.514C148.353 28.725 147.772 27.5947 146.77 26.6904C145.802 25.7861 144.461 25.334 142.75 25.334C141.264 25.334 140.021 25.6893 139.02 26.3998C138.051 27.1102 137.324 28.0952 136.84 29.3548C136.355 30.582 136.113 32.003 136.113 33.6177C136.113 35.1679 136.339 36.5727 136.791 37.8322C137.276 39.0917 138.002 40.0767 138.971 40.7872C139.972 41.4977 141.248 41.853 142.798 41.853C143.961 41.853 144.962 41.643 145.802 41.2232C146.641 40.8034 147.303 40.2221 147.788 39.4793C148.304 38.7365 148.627 37.8968 148.757 36.9603H155.296C155.167 39.0917 154.537 40.9648 153.407 42.5796C152.309 44.1621 150.84 45.4054 148.999 46.3097C147.19 47.2139 145.123 47.6661 142.798 47.6661Z" fill="#E6E6E6"/>
<path d="M163.694 46.1643C165.276 46.778 167.279 47.0848 169.701 47.0848H173.479V41.3201H169.362C168.07 41.3201 167.069 40.981 166.358 40.3028C165.68 39.5923 165.341 38.5912 165.341 37.2993L165.365 25.3825H173.479V20.4413H165.375L165.389 13.0296H159.092L159.077 20.4413H154.877V25.3825H159.067L159.043 36.8634C159.043 39.4147 159.431 41.4493 160.206 42.9671C160.981 44.4527 162.144 45.5184 163.694 46.1643Z" fill="#E6E6E6"/>
<path d="M185.671 47.5692C182.635 47.5692 180.277 46.568 178.598 44.5657C176.951 42.5634 176.127 39.5923 176.127 35.6523V20.3929H182.861V36.2336C182.861 37.8484 183.313 39.1402 184.217 40.109C185.122 41.0456 186.349 41.5139 187.899 41.5139C189.449 41.5139 190.709 41.0133 191.677 40.0121C192.679 39.011 193.179 37.6546 193.179 35.943V20.3929H199.913V46.7457H194.584V40.6202C194.448 41.1774 194.287 41.7014 194.1 42.1921C193.421 43.9683 192.404 45.3085 191.048 46.2128C189.691 47.1171 187.996 47.5692 185.961 47.5692H185.671Z" fill="#E6E6E6"/>
<path d="M206.243 45.2924C208.31 46.8103 211.152 47.5692 214.769 47.5692C217.094 47.5692 219.112 47.2139 220.824 46.5034C222.536 45.793 223.86 44.808 224.796 43.5484C225.765 42.2566 226.25 40.7388 226.25 38.9948C226.25 36.6373 225.362 34.7642 223.585 33.3755C221.841 31.9868 219.419 31.131 216.319 30.808L213.994 30.5658C212.573 30.4043 211.539 30.0975 210.893 29.6454C210.28 29.1933 209.973 28.5474 209.973 27.7077C209.973 26.8357 210.36 26.1252 211.136 25.5762C211.911 25.0272 213.009 24.7527 214.43 24.7527C216.012 24.7527 217.223 25.0757 218.063 25.7216C218.903 26.3675 219.355 27.1425 219.419 28.0468H225.475C225.378 25.3017 224.328 23.2187 222.326 21.7977C220.324 20.3767 217.708 19.6662 214.478 19.6662C212.411 19.6662 210.57 19.9892 208.956 20.6351C207.373 21.2487 206.13 22.1691 205.226 23.3963C204.321 24.6235 203.869 26.1414 203.869 27.9499C203.869 30.2106 204.66 32.0191 206.243 33.3755C207.825 34.7319 210.086 35.5716 213.025 35.8945L215.35 36.1367C217.094 36.2982 218.321 36.6373 219.032 37.154C219.774 37.6707 220.146 38.3651 220.146 39.2371C220.146 40.2382 219.661 41.0294 218.693 41.6107C217.756 42.1921 216.48 42.4827 214.866 42.4827C212.928 42.4827 211.507 42.1113 210.603 41.3685C209.698 40.6257 209.198 39.8022 209.101 38.898H203.046C203.143 41.6107 204.208 43.7422 206.243 45.2924Z" fill="#E6E6E6"/>
<path fill-rule="evenodd" clip-rule="evenodd" d="M29.0632 0.853516C13.012 0.853516 0 13.8655 0 29.9167C0 45.9678 13.012 58.9798 29.0632 58.9798C45.1143 58.9798 58.1263 45.9678 58.1263 29.9167C58.1263 13.8655 45.1143 0.853516 29.0632 0.853516ZM6.51693 29.9167C6.51693 17.4647 16.6112 7.37045 29.0632 7.37045C41.5151 7.37045 51.6094 17.4647 51.6094 29.9167C51.6094 41.2806 43.2021 50.6809 32.2681 52.2369V47.2636L38.055 45.1273C41.3994 43.8927 43.6205 40.7052 43.6205 37.1401V27.3479C43.6205 25.5483 42.1616 24.0895 40.362 24.0895C38.5624 24.0895 37.1035 25.5483 37.1035 27.3479V37.1401C37.1035 37.9764 36.5825 38.7241 35.7981 39.0137L32.2681 40.3168V14.5245C32.2681 12.7249 30.8092 11.266 29.0096 11.266C27.21 11.266 25.7511 12.7249 25.7511 14.5245V28.5055L22.3266 27.2413C21.5421 26.9517 21.0211 26.204 21.0211 25.3678V21.1465C21.0211 19.3469 19.5623 17.888 17.7626 17.888C15.963 17.888 14.5042 19.3469 14.5042 21.1465V25.3678C14.5042 28.9328 16.7253 32.1203 20.0697 33.355L25.7511 35.4523V52.2214C14.8694 50.6194 6.51693 41.2435 6.51693 29.9167Z" fill="#E6E6E6"/>
</svg>
