<svg width="263" height="60" viewBox="0 0 263 60" fill="none" xmlns="http://www.w3.org/2000/svg">
<path d="M70.9033 49.2205L73.8518 48.4834V17.0333L70.9033 16.2962V15.5591H84.1713C89.1509 15.5591 92.8037 16.3617 95.1297 17.967C97.4885 19.5395 98.6679 21.6034 98.6679 24.1587C98.6679 25.9278 98.1601 27.3529 97.1445 28.434C96.1289 29.5151 94.8349 30.3177 93.2624 30.8419C91.5916 31.4316 89.7898 31.7428 87.8569 31.7756V32.0213C90.2484 32.1195 92.3287 32.4799 94.0978 33.1024C95.8996 33.692 97.3902 34.6093 98.5696 35.8542C99.7817 37.0991 100.388 38.688 100.388 40.6209C100.388 43.5366 99.1921 45.8298 96.8005 47.5006C94.409 49.1386 90.5269 49.9577 85.1542 49.9577H70.9033V49.2205ZM84.1713 31.2841C85.2524 31.2841 86.2516 30.9893 87.1689 30.3996C88.119 29.7772 88.8725 28.9254 89.4294 27.8443C90.0191 26.7304 90.3139 25.5019 90.3139 24.1587C90.3139 22.7173 90.0191 21.4396 89.4294 20.3257C88.8725 19.2119 88.119 18.3437 87.1689 17.7213C86.2516 17.0988 85.2524 16.7876 84.1713 16.7876H81.96V31.2841H84.1713ZM85.1542 48.7291C87.1853 48.7291 88.8397 48.0084 90.1174 46.5669C91.395 45.1255 92.0339 43.1435 92.0339 40.6209C92.0339 38.0983 91.395 36.1163 90.1174 34.6749C88.8397 33.2334 87.1853 32.5127 85.1542 32.5127H81.96V48.7291H85.1542Z" fill="#E6E6E6"/>
<path d="M101.355 49.2205L104.304 48.4834V17.0333L101.355 16.2962V15.5591H107.744C110.692 15.5591 112.166 17.0333 112.166 19.9818V48.4834L115.115 49.2205V49.9577H101.355V49.2205Z" fill="#E6E6E6"/>
<path d="M128.621 50.6948C124.558 50.6948 121.364 49.5481 119.038 47.2549C116.745 44.9289 115.598 41.7348 115.598 37.6725C115.598 33.6101 116.745 30.4324 119.038 28.1391C121.364 25.8131 124.558 24.6501 128.621 24.6501C132.683 24.6501 135.861 25.8131 138.154 28.1391C140.48 30.4324 141.643 33.6101 141.643 37.6725C141.643 41.7348 140.48 44.9289 138.154 47.2549C135.861 49.5481 132.683 50.6948 128.621 50.6948ZM128.621 49.712C129.931 49.712 131.029 48.7947 131.913 46.9601C132.83 45.1255 133.289 42.0296 133.289 37.6725C133.289 33.3153 132.83 30.2194 131.913 28.3848C131.029 26.5502 129.931 25.6329 128.621 25.6329C127.31 25.6329 126.196 26.5502 125.279 28.3848C124.395 30.2194 123.952 33.3153 123.952 37.6725C123.952 42.0296 124.395 45.1255 125.279 46.9601C126.196 48.7947 127.31 49.712 128.621 49.712Z" fill="#E6E6E6"/>
<path d="M154.683 50.6948C152.652 50.6948 150.833 50.2525 149.228 49.368C148.442 48.9421 147.803 48.4834 147.312 47.992C146.787 48.7128 146.214 49.2697 145.592 49.6628C145.297 49.8594 144.969 50.0396 144.609 50.2034H143.38V41.8494H145.346C145.772 43.2254 146.394 44.503 147.213 45.6824C148.95 48.205 151.112 49.4662 153.7 49.4662C155.076 49.4662 156.108 49.1386 156.796 48.4834C157.516 47.7955 157.877 46.8126 157.877 45.535C157.877 44.4539 157.385 43.553 156.403 42.8322C155.453 42.0787 153.946 41.1614 151.882 40.0804C150.113 39.1958 148.671 38.4096 147.557 37.7216C146.476 37.0009 145.542 36.1163 144.756 35.068C144.003 33.9869 143.626 32.7256 143.626 31.2841C143.626 29.3185 144.461 27.7296 146.132 26.5175C147.836 25.2726 150.44 24.6501 153.946 24.6501C155.682 24.6501 157.287 25.1088 158.761 26.0261C159.482 26.452 160.105 26.8942 160.629 27.3529C161.055 26.7632 161.628 26.2063 162.349 25.6821C162.906 25.3545 163.233 25.1743 163.331 25.1415H164.56V33.4955H162.594C162.103 32.0868 161.497 30.8255 160.776 29.7116C159.138 27.1563 157.189 25.8787 154.928 25.8787C154.044 25.8787 153.29 26.2063 152.668 26.8615C152.045 27.5167 151.734 28.3357 151.734 29.3185C151.734 30.5634 152.258 31.6117 153.307 32.4635C154.355 33.2825 155.944 34.2326 158.073 35.3137C159.81 36.1982 161.186 36.9845 162.201 37.6725C163.25 38.3277 164.134 39.1467 164.855 40.1295C165.608 41.1123 165.985 42.2589 165.985 43.5693C165.985 48.3196 162.218 50.6948 154.683 50.6948Z" fill="#E6E6E6"/>
<path d="M178.764 50.6948C176.732 50.6948 174.914 50.2525 173.309 49.368C172.523 48.9421 171.884 48.4834 171.392 47.992C170.868 48.7128 170.295 49.2697 169.673 49.6628C169.378 49.8594 169.05 50.0396 168.69 50.2034H167.461V41.8494H169.427C169.853 43.2254 170.475 44.503 171.294 45.6824C173.03 48.205 175.193 49.4662 177.781 49.4662C179.157 49.4662 180.189 49.1386 180.877 48.4834C181.597 47.7955 181.958 46.8126 181.958 45.535C181.958 44.4539 181.466 43.553 180.484 42.8322C179.533 42.0787 178.026 41.1614 175.963 40.0804C174.193 39.1958 172.752 38.4096 171.638 37.7216C170.557 37.0009 169.623 36.1163 168.837 35.068C168.084 33.9869 167.707 32.7256 167.707 31.2841C167.707 29.3185 168.542 27.7296 170.213 26.5175C171.917 25.2726 174.521 24.6501 178.026 24.6501C179.763 24.6501 181.368 25.1088 182.842 26.0261C183.563 26.452 184.185 26.8942 184.71 27.3529C185.136 26.7632 185.709 26.2063 186.43 25.6821C186.986 25.3545 187.314 25.1743 187.412 25.1415H188.641V33.4955H186.675C186.184 32.0868 185.578 30.8255 184.857 29.7116C183.219 27.1563 181.27 25.8787 179.009 25.8787C178.125 25.8787 177.371 26.2063 176.749 26.8615C176.126 27.5167 175.815 28.3357 175.815 29.3185C175.815 30.5634 176.339 31.6117 177.388 32.4635C178.436 33.2825 180.025 34.2326 182.154 35.3137C183.891 36.1982 185.267 36.9845 186.282 37.6725C187.33 38.3277 188.215 39.1467 188.936 40.1295C189.689 41.1123 190.066 42.2589 190.066 43.5693C190.066 48.3196 186.299 50.6948 178.764 50.6948Z" fill="#E6E6E6"/>
<path d="M204.319 50.6948C200.256 50.6948 197.062 49.5481 194.736 47.2549C192.443 44.9289 191.296 41.7348 191.296 37.6725C191.296 33.6101 192.443 30.4324 194.736 28.1391C197.062 25.8131 200.256 24.6501 204.319 24.6501C208.381 24.6501 211.559 25.8131 213.852 28.1391C216.178 30.4324 217.341 33.6101 217.341 37.6725C217.341 41.7348 216.178 44.9289 213.852 47.2549C211.559 49.5481 208.381 50.6948 204.319 50.6948ZM204.319 49.712C205.629 49.712 206.727 48.7947 207.611 46.9601C208.528 45.1255 208.987 42.0296 208.987 37.6725C208.987 33.3153 208.528 30.2194 207.611 28.3848C206.727 26.5502 205.629 25.6329 204.319 25.6329C203.008 25.6329 201.894 26.5502 200.977 28.3848C200.093 30.2194 199.65 33.3153 199.65 37.6725C199.65 42.0296 200.093 45.1255 200.977 46.9601C201.894 48.7947 203.008 49.712 204.319 49.712Z" fill="#E6E6E6"/>
<path d="M218.833 49.2205L221.781 48.4834V26.8615L218.833 26.1244V25.3872H223.255C225.188 25.3872 226.711 26.0097 227.825 27.2546C228.251 27.746 228.612 28.3521 228.906 29.0728C229.398 28.1555 229.922 27.4184 230.479 26.8615C231.953 25.3872 233.64 24.6501 235.54 24.6501C237.441 24.6501 239.111 25.076 240.553 25.9278C241.994 26.7468 243.108 27.877 243.894 29.3185C244.386 28.3685 244.91 27.5986 245.467 27.0089C246.974 25.4364 248.661 24.6501 250.528 24.6501C252.265 24.6501 253.821 25.0105 255.197 25.7312C256.605 26.452 257.687 27.4348 258.44 28.6797C259.226 29.9246 259.619 31.2841 259.619 32.7584V48.4834L262.568 49.2205V49.9577H256.18C253.231 49.9577 251.757 48.4834 251.757 45.535V32.7584C251.757 30.6289 251.429 29.04 250.774 27.9917C250.119 26.9106 249.382 26.3701 248.563 26.3701C247.613 26.3701 246.646 27.0253 245.663 28.3357C245.27 28.9581 244.926 29.6134 244.631 30.3013V48.4834L247.58 49.2205V49.9577H233.82V49.2205L236.769 48.4834V32.7584C236.769 30.6289 236.441 29.04 235.786 27.9917C235.131 26.9106 234.394 26.3701 233.575 26.3701C232.625 26.3701 231.658 27.0253 230.675 28.3357C230.282 28.9581 229.938 29.6134 229.644 30.3013V48.4834L232.592 49.2205V49.9577H218.833V49.2205Z" fill="#E6E6E6"/>
<path fill-rule="evenodd" clip-rule="evenodd" d="M30.9046 59.3411C30.5876 59.4035 30.2588 59.4242 29.9257 59.3989C19.6321 58.6179 9.88903 52.9321 4.33789 43.3173C-1.21334 33.7023 -1.26578 22.4215 3.20485 13.1164C3.85389 11.7654 5.26089 10.9531 6.75534 11.0665C10.5913 11.3576 14.3508 12.3297 17.8454 13.9326C20.4823 8.79099 24.3836 4.40482 29.1388 1.1845C30.3797 0.344099 32.0028 0.344099 33.2438 1.1845C37.9344 4.3611 41.7942 8.67209 44.4291 13.7235C47.7911 12.2451 51.3875 11.3447 55.0538 11.0665C56.5482 10.9531 57.9552 11.7654 58.6043 13.1164C63.0749 22.4215 63.0225 33.7023 57.4712 43.3173C51.9201 52.9321 42.1771 58.6179 31.8834 59.3989C31.5503 59.4242 31.2216 59.4035 30.9046 59.3411ZM38.4464 53.5125C44.6165 51.4141 50.0739 47.1555 53.5853 41.0737C58.2591 32.9783 58.4113 23.512 54.8084 15.5913C51.8498 15.8784 48.9541 16.635 46.2373 17.8297C47.5627 21.475 48.2856 25.4096 48.2856 29.513C48.2856 38.8649 44.5307 47.3399 38.4464 53.5125ZM40.4565 15.8101C38.2552 11.584 35.0661 7.95249 31.1913 5.2202C27.2335 8.011 23.9911 11.74 21.786 16.0824C25.2956 18.3268 28.4135 21.2791 30.9046 24.8765C33.4977 21.1317 36.7701 18.0859 40.4565 15.8101ZM33.4469 29.2286C35.7015 25.3826 38.7383 22.2749 42.2403 19.992C43.2509 22.9812 43.7985 26.1832 43.7985 29.513C43.7985 37.2003 40.8803 44.2068 36.0826 49.4845C37.3807 42.8177 36.5955 35.717 33.4469 29.2286ZM28.3622 29.2286C26.209 25.5556 23.3424 22.5559 20.0384 20.305C19.0942 23.2043 18.5841 26.2992 18.5841 29.513C18.5841 36.806 21.2106 43.4864 25.5768 48.659C24.4971 42.2341 25.3432 35.4499 28.3622 29.2286ZM30.9046 51.6776C32.589 46.3209 32.6583 40.4772 30.9046 34.9375C29.1508 40.4772 29.2201 46.3209 30.9046 51.6776ZM8.22386 41.0737C11.8947 47.4318 17.6925 51.7972 24.2079 53.785C17.9638 47.5906 14.097 39.0034 14.097 29.513C14.097 25.493 14.7908 21.6351 16.0652 18.0524C13.2068 16.7288 10.1391 15.8958 7.00073 15.5913C3.39781 23.512 3.55 32.9783 8.22386 41.0737Z" fill="#E6E6E6"/>
</svg>
