<svg width="253" height="58" viewBox="0 0 253 58" fill="none" xmlns="http://www.w3.org/2000/svg">
<path d="M68.2266 47.7281L71.0637 47.0188V16.7564L68.2266 16.0472V15.3379H80.9935C85.7851 15.3379 89.2999 16.1102 91.5381 17.6549C93.8077 19.168 94.9426 21.1539 94.9426 23.6128C94.9426 25.315 94.454 26.6863 93.4767 27.7266C92.4995 28.7668 91.2544 29.5391 89.7412 30.0435C88.1335 30.6109 86.3998 30.9104 84.5399 30.9419V31.1784C86.8411 31.2729 88.8428 31.6197 90.5451 32.2186C92.2789 32.786 93.7132 33.6687 94.848 34.8666C96.0144 36.0645 96.5976 37.5934 96.5976 39.4532C96.5976 42.2588 95.447 44.4654 93.1458 46.0731C90.8446 47.6493 87.109 48.4374 81.9392 48.4374H68.2266V47.7281ZM80.9935 30.4691C82.0338 30.4691 82.9952 30.1854 83.8779 29.618C84.7921 29.019 85.5171 28.1994 86.053 27.1591C86.6204 26.0873 86.9041 24.9052 86.9041 23.6128C86.9041 22.2257 86.6204 20.9963 86.053 19.9245C85.5171 18.8527 84.7921 18.0174 83.8779 17.4184C82.9952 16.8195 82.0338 16.52 80.9935 16.52H78.8657V30.4691H80.9935ZM81.9392 47.2552C83.8937 47.2552 85.4856 46.5617 86.715 45.1747C87.9444 43.7877 88.5591 41.8805 88.5591 39.4532C88.5591 37.0259 87.9444 35.1188 86.715 33.7317C85.4856 32.3447 83.8937 31.6512 81.9392 31.6512H78.8657V47.2552H81.9392Z" fill="#E6E6E6"/>
<path d="M97.5285 47.7281L100.366 47.0188V16.7564L97.5285 16.0472V15.3379H103.676C106.513 15.3379 107.931 16.7564 107.931 19.5935V47.0188L110.768 47.7281V48.4374H97.5285V47.7281Z" fill="#E6E6E6"/>
<path d="M123.764 49.1466C119.855 49.1466 116.782 48.0433 114.544 45.8367C112.337 43.5985 111.234 40.525 111.234 36.6161C111.234 32.7072 112.337 29.6495 114.544 27.4428C116.782 25.2047 119.855 24.0856 123.764 24.0856C127.673 24.0856 130.731 25.2047 132.938 27.4428C135.176 29.6495 136.295 32.7072 136.295 36.6161C136.295 40.525 135.176 43.5985 132.938 45.8367C130.731 48.0433 127.673 49.1466 123.764 49.1466ZM123.764 48.2009C125.025 48.2009 126.081 47.3183 126.932 45.553C127.815 43.7877 128.256 40.8087 128.256 36.6161C128.256 32.4235 127.815 29.4446 126.932 27.6793C126.081 25.914 125.025 25.0313 123.764 25.0313C122.503 25.0313 121.432 25.914 120.549 27.6793C119.698 29.4446 119.272 32.4235 119.272 36.6161C119.272 40.8087 119.698 43.7877 120.549 45.553C121.432 47.3183 122.503 48.2009 123.764 48.2009Z" fill="#E6E6E6"/>
<path d="M148.842 49.1466C146.887 49.1466 145.138 48.7211 143.593 47.87C142.837 47.4602 142.222 47.0188 141.749 46.546C141.245 47.2395 140.693 47.7754 140.094 48.1537C139.81 48.3428 139.495 48.5162 139.149 48.6738H137.966V40.6354H139.858C140.268 41.9593 140.867 43.1887 141.655 44.3236C143.325 46.7509 145.406 47.9645 147.896 47.9645C149.22 47.9645 150.213 47.6493 150.875 47.0188C151.569 46.3568 151.915 45.4111 151.915 44.1817C151.915 43.1415 151.443 42.2746 150.497 41.5811C149.583 40.856 148.133 39.9734 146.147 38.9331C144.444 38.082 143.057 37.3254 141.986 36.6634C140.945 35.9699 140.047 35.1188 139.29 34.11C138.565 33.0698 138.203 31.8561 138.203 30.4691C138.203 28.5777 139.007 27.0488 140.614 25.8824C142.254 24.6846 144.76 24.0856 148.133 24.0856C149.803 24.0856 151.348 24.5269 152.767 25.4096C153.46 25.8194 154.059 26.245 154.563 26.6863C154.973 26.1189 155.525 25.583 156.218 25.0786C156.754 24.7634 157.07 24.59 157.164 24.5585H158.346V32.5969H156.455C155.982 31.2414 155.399 30.0278 154.705 28.956C153.129 26.4971 151.253 25.2677 149.078 25.2677C148.227 25.2677 147.502 25.583 146.903 26.2134C146.304 26.8439 146.005 27.632 146.005 28.5777C146.005 29.7756 146.509 30.7843 147.518 31.6039C148.527 32.392 150.056 33.3062 152.105 34.3464C153.775 35.1976 155.099 35.9541 156.077 36.6161C157.085 37.2466 157.936 38.0347 158.63 38.9804C159.355 39.9261 159.717 41.0294 159.717 42.2903C159.717 46.8612 156.092 49.1466 148.842 49.1466Z" fill="#E6E6E6"/>
<path d="M172.013 49.1466C170.059 49.1466 168.309 48.7211 166.765 47.87C166.008 47.4602 165.394 47.0188 164.921 46.546C164.416 47.2395 163.865 47.7754 163.266 48.1537C162.982 48.3428 162.667 48.5162 162.32 48.6738H161.138V40.6354H163.029C163.439 41.9593 164.038 43.1887 164.826 44.3236C166.497 46.7509 168.577 47.9645 171.068 47.9645C172.392 47.9645 173.385 47.6493 174.047 47.0188C174.74 46.3568 175.087 45.4111 175.087 44.1817C175.087 43.1415 174.614 42.2746 173.668 41.5811C172.754 40.856 171.304 39.9734 169.318 38.9331C167.616 38.082 166.229 37.3254 165.157 36.6634C164.117 35.9699 163.218 35.1188 162.462 34.11C161.737 33.0698 161.374 31.8561 161.374 30.4691C161.374 28.5777 162.178 27.0488 163.786 25.8824C165.425 24.6846 167.931 24.0856 171.304 24.0856C172.975 24.0856 174.52 24.5269 175.938 25.4096C176.632 25.8194 177.231 26.245 177.735 26.6863C178.145 26.1189 178.696 25.583 179.39 25.0786C179.926 24.7634 180.241 24.59 180.336 24.5585H181.518V32.5969H179.626C179.153 31.2414 178.57 30.0278 177.877 28.956C176.301 26.4971 174.425 25.2677 172.25 25.2677C171.399 25.2677 170.674 25.583 170.075 26.2134C169.476 26.8439 169.176 27.632 169.176 28.5777C169.176 29.7756 169.681 30.7843 170.689 31.6039C171.698 32.392 173.227 33.3062 175.276 34.3464C176.947 35.1976 178.271 35.9541 179.248 36.6161C180.257 37.2466 181.108 38.0347 181.801 38.9804C182.526 39.9261 182.889 41.0294 182.889 42.2903C182.889 46.8612 179.264 49.1466 172.013 49.1466Z" fill="#E6E6E6"/>
<path d="M196.603 49.1466C192.695 49.1466 189.621 48.0433 187.383 45.8367C185.176 43.5985 184.073 40.525 184.073 36.6161C184.073 32.7072 185.176 29.6495 187.383 27.4428C189.621 25.2047 192.695 24.0856 196.603 24.0856C200.512 24.0856 203.57 25.2047 205.777 27.4428C208.015 29.6495 209.134 32.7072 209.134 36.6161C209.134 40.525 208.015 43.5985 205.777 45.8367C203.57 48.0433 200.512 49.1466 196.603 49.1466ZM196.603 48.2009C197.864 48.2009 198.92 47.3183 199.772 45.553C200.654 43.7877 201.096 40.8087 201.096 36.6161C201.096 32.4235 200.654 29.4446 199.772 27.6793C198.92 25.914 197.864 25.0313 196.603 25.0313C195.343 25.0313 194.271 25.914 193.388 27.6793C192.537 29.4446 192.111 32.4235 192.111 36.6161C192.111 40.8087 192.537 43.7877 193.388 45.553C194.271 47.3183 195.343 48.2009 196.603 48.2009Z" fill="#E6E6E6"/>
<path d="M210.569 47.7281L213.406 47.0188V26.2134L210.569 25.5042V24.7949H214.825C216.685 24.7949 218.15 25.3938 219.222 26.5917C219.632 27.0646 219.979 27.6477 220.263 28.3413C220.735 27.4586 221.24 26.7493 221.776 26.2134C223.194 24.7949 224.818 24.0856 226.646 24.0856C228.474 24.0856 230.082 24.4954 231.469 25.315C232.856 26.1031 233.928 27.1907 234.684 28.5777C235.157 27.6635 235.662 26.9227 236.198 26.3553C237.648 24.8422 239.271 24.0856 241.068 24.0856C242.739 24.0856 244.236 24.4324 245.56 25.1259C246.916 25.8194 247.956 26.7651 248.681 27.963C249.437 29.1609 249.816 30.4691 249.816 31.8876V47.0188L252.653 47.7281V48.4374H246.506C243.669 48.4374 242.25 47.0188 242.25 44.1817V31.8876C242.25 29.8386 241.935 28.3097 241.304 27.301C240.674 26.2607 239.965 25.7406 239.177 25.7406C238.262 25.7406 237.332 26.3711 236.387 27.632C236.008 28.2309 235.677 28.8614 235.394 29.5234V47.0188L238.231 47.7281V48.4374H224.991V47.7281L227.828 47.0188V31.8876C227.828 29.8386 227.513 28.3097 226.882 27.301C226.252 26.2607 225.543 25.7406 224.755 25.7406C223.84 25.7406 222.911 26.3711 221.965 27.632C221.587 28.2309 221.256 28.8614 220.972 29.5234V47.0188L223.809 47.7281V48.4374H210.569V47.7281Z" fill="#E6E6E6"/>
<path fill-rule="evenodd" clip-rule="evenodd" d="M29.7374 57.4652C29.4324 57.5252 29.116 57.5452 28.7955 57.5209C18.8906 56.7693 9.51556 51.2983 4.17406 42.0465C-1.16752 32.7946 -1.21798 21.9399 3.08381 12.9862C3.70835 11.6863 5.06221 10.9046 6.50022 11.0137C10.1913 11.2938 13.8088 12.2293 17.1714 13.7715C19.7088 8.82416 23.4627 4.60364 28.0383 1.50493C29.2324 0.696272 30.7942 0.696272 31.9883 1.50493C36.5018 4.56156 40.2158 8.70975 42.7512 13.5704C45.9863 12.1478 49.4468 11.2814 52.9746 11.0137C54.4126 10.9046 55.7665 11.6863 56.391 12.9862C60.6928 21.9399 60.6424 32.7947 55.3008 42.0465C49.9593 51.2983 40.5842 56.7693 30.6793 57.5209C30.3588 57.5452 30.0425 57.5252 29.7374 57.4652ZM36.9944 51.8567C42.9315 49.8375 48.1829 45.7398 51.5616 39.8877C56.0589 32.0981 56.2054 22.9892 52.7385 15.3677C49.8917 15.6439 47.1053 16.372 44.4911 17.5215C45.7665 21.0292 46.4621 24.8152 46.4621 28.7636C46.4621 37.7624 42.849 45.9172 36.9944 51.8567ZM38.9286 15.5781C36.8105 11.5117 33.7418 8.01732 30.0133 5.38823C26.205 8.07363 23.0851 11.6618 20.9633 15.8402C24.3403 17.9998 27.3404 20.8407 29.7374 24.3022C32.2327 20.6988 35.3814 17.768 38.9286 15.5781ZM32.1837 28.4899C34.3532 24.7892 37.2753 21.7989 40.6451 19.6022C41.6175 22.4784 42.1444 25.5596 42.1444 28.7636C42.1444 36.1605 39.3364 42.9024 34.7199 47.9808C35.969 41.5658 35.2135 34.7333 32.1837 28.4899ZM27.2911 28.4899C25.2192 24.9556 22.4608 22.0692 19.2816 19.9033C18.3731 22.6931 17.8823 25.6711 17.8823 28.7636C17.8823 35.7812 20.4096 42.2092 24.6109 47.1865C23.5719 41.0043 24.3861 34.4763 27.2911 28.4899ZM29.7374 50.0911C31.3582 44.9367 31.4249 39.3138 29.7374 33.9832C28.0499 39.3138 28.1166 44.9367 29.7374 50.0911ZM7.91328 39.8877C11.4455 46.0057 17.0243 50.2062 23.2936 52.119C17.2854 46.1584 13.5646 37.8955 13.5646 28.7636C13.5646 24.8954 14.2322 21.1832 15.4585 17.7358C12.708 16.4622 9.75622 15.6607 6.73634 15.3677C3.26949 22.9892 3.41593 32.0981 7.91328 39.8877Z" fill="#E6E6E6"/>
</svg>
