<svg width="260" height="54" viewBox="0 0 260 54" fill="none" xmlns="http://www.w3.org/2000/svg">
<path d="M83.2535 12.2265L83.564 12.3459L83.6875 12.0371L83.8867 11.5391L84.0195 11.2071L83.6803 11.094C80.2626 9.95476 76.8901 9.38355 73.5642 9.38355C70.2647 9.38355 67.7271 10.1573 66.0144 11.7644C64.3118 13.3286 63.4665 15.3806 63.4665 17.8877C63.4665 21.0532 64.7832 23.5164 67.4012 25.2395C68.5459 26.0137 69.8063 26.7192 71.1815 27.3565L71.1814 27.3566L71.1877 27.3593C72.55 27.9574 73.8958 28.5389 75.225 29.1039L75.2278 29.105C76.5762 29.6641 77.8068 30.2714 78.9205 30.9265C81.3537 32.3673 82.5394 34.3385 82.5394 36.8609C82.5394 39.1778 81.6282 40.9108 79.804 42.1062C77.9761 43.2925 75.7523 43.894 73.116 43.894C71.3245 43.894 69.5658 43.6337 67.8388 43.1127C66.141 42.5573 64.7694 41.8601 63.7135 41.0282L63.4182 40.7955L63.219 41.1143L62.97 41.5127L62.8005 41.7839L63.0623 41.9675C66.0159 44.0384 69.5721 45.0663 73.7136 45.0663C75.9291 45.0663 77.8727 44.8147 79.5391 44.3046L79.5432 44.3033C81.2712 43.7503 82.7368 42.7132 83.9371 41.2041C85.1515 39.6775 85.7534 37.8418 85.7534 35.7156C85.7534 33.5905 85.3998 31.8225 84.6698 30.4311C83.95 29.0264 83.0014 27.9188 81.8205 27.12C80.6734 26.344 79.4103 25.6538 78.0322 25.0488C76.6642 24.4482 75.2958 23.9141 73.9269 23.4465C72.6117 22.9531 71.3968 22.4276 70.282 21.8704C67.8481 20.5884 66.6805 18.8159 66.6805 16.5431C66.6805 14.649 67.384 13.1915 68.7876 12.131C70.203 11.0616 72.1967 10.506 74.8091 10.506C77.4494 10.506 80.2633 11.0765 83.2535 12.2265ZM103.953 44.0389L103.953 44.039L103.959 44.0439C104.772 44.7085 105.905 45.0165 107.31 45.0165H110.348H110.685V44.6793V44.2809V43.9438H110.348H108.834L108.317 43.8496L108.301 43.8467L108.284 43.8454C108.022 43.8235 107.703 43.644 107.332 43.1837C107.025 42.7303 106.851 42.0632 106.851 41.1436V25.5567C106.851 23.8712 106.419 22.4631 105.531 21.3611L105.531 21.3611L105.526 21.3556C104.937 20.6559 104.022 20.1483 102.827 19.806C101.652 19.427 100.138 19.2437 98.2966 19.2437C96.3861 19.2437 94.6355 19.9058 93.0539 21.2118C91.9538 22.097 91.0885 23.0406 90.4668 24.0444V19.78V19.4429H90.1296H86.6437H86.3066V19.78V44.6793V45.0165H86.6437H90.1296H90.4668V44.6793V27.0008C90.4668 25.8127 91.2302 24.402 92.9054 22.7597L92.9077 22.7573C94.5464 21.1187 96.3725 20.3164 98.3962 20.3164C99.3873 20.3164 100.195 20.4759 100.833 20.7781C102.019 21.4189 102.69 22.9231 102.69 25.5069V41.1436V41.1535L102.691 41.1634L102.741 42.0089C102.781 42.7374 103.223 43.413 103.953 44.0389ZM111.52 22.7785L111.518 22.7803C109.182 25.1509 108.035 28.4662 108.035 32.6779C108.035 36.8835 109.146 40.0619 111.432 42.1401C113.696 44.1982 116.621 45.2157 120.175 45.2157C123.774 45.2157 126.752 44.0408 129.079 41.68C131.449 39.3096 132.613 35.994 132.613 31.7815C132.613 27.5759 131.502 24.3975 129.216 22.3193C126.951 20.2606 124.01 19.2437 120.424 19.2437C116.856 19.2437 113.879 20.4194 111.52 22.7785ZM114.519 23.5672L114.52 23.5652C116.125 21.3831 118.12 20.3164 120.523 20.3164C122.947 20.3164 124.873 21.2346 126.334 23.077C127.793 24.9155 128.552 27.7959 128.552 31.7815C128.552 35.7224 127.731 38.7633 126.128 40.9431C124.525 43.0912 122.529 44.143 120.125 44.143C117.701 44.143 115.775 43.2247 114.313 41.3823C112.855 39.5434 112.096 36.6793 112.096 32.7277C112.096 28.7519 112.918 25.7124 114.519 23.5672ZM166.313 19.8404L166.067 20.0866L166.321 20.3248C166.764 20.7403 167.011 21.3689 167.011 22.27C167.011 23.1857 166.822 23.9556 166.458 24.5926L166.451 24.6053L166.445 24.6185L159.565 39.5176L152.227 19.6631L152.146 19.4429H151.911H148.425H147.943L148.109 19.896L149.903 24.7951L143.131 39.5161L135.794 19.6631L135.712 19.4429H135.477H131.992H131.506L131.676 19.8976L140.938 44.7969L141.02 45.0165H141.254H141.752H141.969L142.059 44.8189L150.485 26.2902L157.372 44.7969L157.453 45.0165H157.688H158.186H158.403L158.493 44.819L167.556 24.8995L167.556 24.8995L167.559 24.8927C167.973 23.9265 168.184 22.9685 168.184 22.021C168.184 21.7624 168.148 21.4921 168.079 21.2111C168.033 20.8798 167.872 20.5392 167.632 20.194C167.529 20.024 167.43 19.8788 167.334 19.7634C167.24 19.6508 167.13 19.5425 167.001 19.4785L166.784 19.3698L166.612 19.5416L166.313 19.8404Z" fill="#E6E6E6" stroke="#E6E6E6" stroke-width="0.674298"/>
<path d="M191.366 39.1746L191.366 39.1746C191.512 40.8997 191.944 42.1404 192.62 42.9453C193.284 43.7365 194.216 44.1446 195.462 44.1446C197.137 44.1446 198.637 43.5784 199.973 42.4332C201.369 41.2323 202.053 40.1328 202.146 39.138V39.1533L191.366 39.1746ZM191.366 39.1746L191.365 39.1696C191.333 38.8461 191.317 38.5588 191.317 38.3068C191.317 36.9048 191.682 35.85 192.373 35.0989C192.702 34.7416 193.245 34.4167 194.04 34.1438C194.831 33.8721 195.847 33.6602 197.094 33.5125C197.978 33.4143 198.861 33.3653 199.745 33.3653C200.558 33.3653 201.359 33.3909 202.146 33.4422L191.366 39.1746ZM175.875 10.2551C176.769 8.8857 178.2 7.82162 180.181 7.68363L179.744 41.4895V41.4939C179.744 41.8284 179.848 42.1797 180.028 42.541C180.882 44.2482 182.904 45.0181 185.857 45.0181H187.401H187.738V44.681V44.2826V43.9455H187.401H185.888L185.37 43.8513L185.354 43.8484L185.338 43.847C185.076 43.8252 184.756 43.6456 184.385 43.1853C184.078 42.732 183.904 42.0649 183.904 41.1453V7.38183V7.05015L183.572 7.04473L180.529 6.99493L180.19 6.98939L180.19 7.00035C176.832 7.07987 174.315 7.88473 172.717 9.48269C171.061 11.1043 170.276 13.7894 170.276 17.4412V19.4445H169.567H169.23V19.7817V20.5863V20.9234H169.567H170.276V44.681V45.0181H170.613H174.099H174.436V44.681V20.9234H178.033H178.37V20.5863V19.7817V19.4445H178.033H174.436V17.4412C174.436 14.0373 174.935 11.6656 175.874 10.258L175.874 10.258L175.875 10.2551ZM202.146 32.3634C201.502 32.3161 200.801 32.2926 200.043 32.2926C199.136 32.2926 198.148 32.3429 197.079 32.443C194.928 32.5766 193.142 32.8276 191.728 33.2001C190.319 33.5714 189.247 34.0715 188.557 34.7255C187.908 35.3399 187.474 35.9401 187.318 36.5267C187.179 37.0478 187.107 37.542 187.107 38.008C187.107 38.4242 187.142 38.8402 187.211 39.2557C187.503 41.2081 188.268 42.7129 189.537 43.7246C190.803 44.7335 192.526 45.2173 194.665 45.2173C196.505 45.2173 198.112 44.8381 199.475 44.0655C200.522 43.472 201.414 42.6525 202.151 41.614C202.203 42.257 202.667 42.9312 203.391 43.6251C204.322 44.5894 205.988 45.0181 208.26 45.0181H209.804H210.141V44.681V44.2826V43.9455H209.804H208.291L207.773 43.8513L207.757 43.8484L207.74 43.847C207.479 43.8252 207.159 43.6456 206.788 43.1854C206.481 42.732 206.307 42.0649 206.307 41.1453V24.4628C206.307 23.3003 205.832 22.2108 204.926 21.2003C204.32 20.5211 203.415 20.0351 202.248 19.7178C201.081 19.4002 199.629 19.2453 197.902 19.2453C194.796 19.2453 191.743 19.9378 188.747 21.318L188.413 21.472L188.596 21.7915L188.795 22.1401L188.961 22.4315L189.254 22.2663C189.979 21.8565 191.14 21.4336 192.76 21.0039L192.76 21.004L192.764 21.0027C194.405 20.5432 195.818 20.318 197.006 20.318C198.208 20.318 199.153 20.4811 199.859 20.7881L199.859 20.7883L199.871 20.7928C200.604 21.0799 201.065 21.4129 201.31 21.7663C201.593 22.1752 201.811 22.5971 201.967 23.0324L201.972 23.0466L201.978 23.0603C202.161 23.4571 202.198 23.7412 202.155 23.9376C202.121 24.0772 202.097 24.2109 202.097 24.3258C202.097 24.3836 202.102 24.4572 202.129 24.5313C202.134 24.5444 202.14 24.558 202.146 24.5719V32.3634ZM196.106 44.4544C196.966 44.3802 197.78 44.1559 198.547 43.7814C197.811 44.1147 196.998 44.3398 196.106 44.4544ZM201.658 41.1437C201.79 40.9615 201.906 40.7805 202.007 40.6007C201.895 40.7886 201.778 40.9696 201.658 41.1437ZM214.375 7.33203V6.99488H214.038H210.552H210.215V7.33203V44.681V45.0181H210.552H214.038H214.375V44.681V32.8058L215.35 31.6869L224.316 44.8706L224.417 45.0181H224.595H228.081H228.718L228.36 44.4913L217.801 28.9718L225.744 20.0053L226.241 19.4445H225.492H224.994H224.842L224.741 19.558L214.375 31.2436V7.33203ZM247.737 42.855L247.609 42.5566L247.306 42.6732C244.762 43.6517 241.849 44.1446 238.563 44.1446C236.315 44.1446 234.505 43.2342 233.106 41.391C231.743 39.5522 231.032 36.6198 231.032 32.5301C231.032 31.6862 231.071 30.869 231.148 30.0786H248.622H248.959V29.7414V29.7404V29.7395V29.7385V29.7375V29.7365V29.7356V29.7346V29.7336V29.7327V29.7317V29.7307V29.7297V29.7288V29.7278V29.7268V29.7258V29.7249V29.7239V29.7229V29.722V29.721V29.72V29.719V29.7181V29.7171V29.7161V29.7151V29.7142V29.7132V29.7122V29.7113V29.7103V29.7093V29.7083V29.7074V29.7064V29.7054V29.7044V29.7035V29.7025V29.7015V29.7006V29.6996V29.6986V29.6976V29.6967V29.6957V29.6947V29.6938V29.6928V29.6918V29.6908V29.6899V29.6889V29.6879V29.6869V29.686V29.685V29.684V29.6831V29.6821V29.6811V29.6801V29.6792V29.6782V29.6772V29.6762V29.6753V29.6743V29.6733V29.6724V29.6714V29.6704V29.6694V29.6685V29.6675V29.6665V29.6655V29.6646V29.6636V29.6626V29.6617V29.6607V29.6597V29.6587V29.6578V29.6568V29.6558V29.6548V29.6539V29.6529V29.6519V29.651V29.65V29.649V29.648V29.6471V29.6461V29.6451V29.6441V29.6432V29.6422V29.6412V29.6403V29.6393V29.6383V29.6373V29.6364V29.6354V29.6344V29.6334V29.6325V29.6315V29.6305V29.6296V29.6286V29.6276V29.6266V29.6257V29.6247V29.6237V29.6227V29.6218V29.6208V29.6198V29.6189V29.6179V29.6169V29.6159V29.615V29.614V29.613V29.6121V29.6111V29.6101V29.6091V29.6082V29.6072V29.6062V29.6052V29.6043V29.6033V29.6023V29.6014V29.6004V29.5994V29.5984V29.5975V29.5965V29.5955V29.5945V29.5936V29.5926V29.5916V29.5907V29.5897V29.5887V29.5877V29.5868V29.5858V29.5848V29.5838V29.5829V29.5819V29.5809V29.58V29.579V29.578V29.577V29.5761V29.5751V29.5741V29.5731V29.5722V29.5712V29.5702V29.5693V29.5683V29.5673V29.5663V29.5654V29.5644V29.5634V29.5624V29.5615V29.5605V29.5595V29.5586V29.5576V29.5566V29.5556V29.5547V29.5537V29.5527V29.5517V29.5508V29.5498V29.5488V29.5479V29.5469V29.5459V29.5449V29.544V29.543V29.542V29.541V29.5401V29.5391V29.5381V29.5372V29.5362V29.5352V29.5342V29.5333V29.5323V29.5313V29.5303V29.5294V29.5284V29.5274V29.5265V29.5255V29.5245V29.5235V29.5226V29.5216V29.5206V29.5197V29.5187V29.5177V29.5167V29.5158V29.5148V29.5138V29.5128V29.5119V29.5109V29.5099V29.509V29.508V29.507V29.506V29.5051V29.5041V29.5031V29.5021V29.5012V29.5002V29.4992V29.4983V29.4973V29.4963V29.4953V29.4944V29.4934V29.4924V29.4914V29.4905V29.4895V29.4885V29.4876V29.4866V29.4856V29.4846V29.4837V29.4827V29.4817V29.4807V29.4798V29.4788V29.4778V29.4769V29.4759V29.4749V29.4739V29.473V29.472V29.471V29.47V29.4691V29.4681V29.4671V29.4662V29.4652V29.4642V29.4632V29.4623V29.4613V29.4603V29.4593V29.4584V29.4574V29.4564V29.4555V29.4545V29.4535V29.4525V29.4516V29.4506V29.4496V29.4486V29.4477V29.4467V29.4457V29.4448V29.4438V29.4428V29.4418V29.4409V29.4399V29.4389V29.438V29.437V29.436V29.435V29.4341V29.4331V29.4321V29.4311V29.4302V29.4292V29.4282V29.4273V29.4263V29.4253V29.4243V29.4234V29.4224V29.4214V29.4204V29.4195V29.4185V29.4175V29.4166V29.4156V29.4146V29.4136V29.4127V29.4117V29.4107V29.4097V29.4088V29.4078V29.4068V29.4059V29.4049V29.4039V29.4029V29.402V29.401V29.4V29.399V29.3981V29.3971V29.3961V29.3952V29.3942V29.3932V29.3922V29.3913V29.3903V29.3893V29.3883V29.3874V29.3864V29.3854V29.3845V29.3835V29.3825V29.3815V29.3806V29.3796V29.3786V29.3776V29.3767V29.3757V29.3747V29.3738V29.3728V29.3718V29.3708V29.3699V29.3689V29.3679V29.3669V29.366V29.365V29.364V29.3631V29.3621V29.3611V29.3601V29.3592V29.3582V29.3572V29.3563V29.3553V29.3543V29.3533V29.3524V29.3514V29.3504V29.3494V29.3485V29.3475V29.3465V29.3456V29.3446V29.3436V29.3426V29.3417V29.3407V29.3397V29.3387V29.3378V29.3368V29.3358V29.3349V29.3339V29.3329V29.3319V29.331V29.33V29.329V29.328V29.3271V29.3261V29.3251V29.3242V29.3232V29.3222V29.3212V29.3203V29.3193V29.3183V29.3173V29.3164V29.3154V29.3144V29.3135V29.3125V29.3115V29.3105V29.3096V29.3086V29.3076V29.3066V29.3057V29.3047V29.3037V29.3028V29.3018V29.3008V29.2998V29.2989V29.2979V29.2969V29.2959V29.295V29.294V29.293V29.2921V29.2911V29.2901V29.2891V29.2882V29.2872V29.2862V29.2852V29.2843V29.2833V29.2823V29.2814V29.2804V29.2794V29.2784V29.2775V29.2765V29.2755V29.2745V29.2736V29.2726V29.2716V29.2707V29.2697V29.2687V29.2677V29.2668V29.2658V29.2648V29.2639V29.2629V29.2619V29.2609V29.26V29.259V29.258V29.257V29.2561V29.2551V29.2541V29.2532V29.2522V29.2512V29.2502V29.2493V29.2483V29.2473V29.2463V29.2454V29.2444V29.2434C248.959 25.9892 248.008 23.4771 246.056 21.7689C244.129 20.0827 241.756 19.2453 238.961 19.2453C235.49 19.2453 232.611 20.4234 230.352 22.7856C228.084 25.1565 226.971 28.4705 226.971 32.6795C226.971 36.8809 228.03 40.0573 230.213 42.1364C232.377 44.197 235.17 45.2173 238.563 45.2173C241.951 45.2173 244.997 44.6974 247.698 43.6508L248.024 43.5246L247.886 43.2036L247.737 42.855ZM243.128 22.4794C244.215 23.8688 244.821 26.026 244.893 29.0059H231.284C231.703 26.3144 232.594 24.2194 233.935 22.6949C235.377 21.093 236.983 20.318 238.762 20.318C240.548 20.318 241.995 21.0315 243.128 22.4794Z" fill="#E6E6E6" stroke="#E6E6E6" stroke-width="0.674298"/>
<path d="M253.219 6.80825V8.12387H251.723V12.1265H250.303V8.12387H248.808V6.80825H253.219Z" fill="#E6E6E6"/>
<path d="M259.049 6.72852V12.1504H257.629V9.51922L256.589 10.7551H256.164L255.123 9.51922V12.1504H253.704V6.72852H254.205L256.376 9.04081L258.548 6.72852H259.049Z" fill="#E6E6E6"/>
<path fill-rule="evenodd" clip-rule="evenodd" d="M24.3892 36.0151L24.3675 53.1171L27.9821 53.1216L28.0039 35.9482L34.5954 51.8056L37.9332 50.4181L31.3859 34.6673L43.4331 46.7452L45.9923 44.1925L33.8923 32.0617L49.7182 38.6297L51.1037 35.2912L35.2663 28.7184H52.412V25.1038H35.3254L51.1173 18.5817L49.7375 15.2408L34.0101 21.7362L46.1045 9.76548L43.5618 7.19645L31.3099 19.323L37.9118 3.39999L34.5728 2.0156L28.0269 17.8037L28.0485 0.709659L24.4339 0.705078L24.4121 17.8905L17.8154 2.02087L14.4777 3.4083L21.0268 19.1636L8.97847 7.08458L6.4193 9.63726L18.5196 21.7683L2.69505 15.2009L1.30951 18.5394L17.1267 25.1038H0V28.7184H17.1041L1.29435 35.2479L2.67415 38.5888L18.412 32.089L6.31086 44.0664L8.85362 46.6354L21.0973 34.5169L14.4991 50.4311L17.8381 51.8155L24.3892 36.0151Z" fill="#E6E6E6"/>
</svg>
